999
Inkscape export via Big Blue Saws DXF Export" (http://www.bigbluesaw.com/saw/big-blue-saw-blog/general-updates/big-blue-saws-dxf-export-for-inkscape.html)
  0
SECTION
  2
HEADER
  9
$ACADVER
  1
AC1014
  9
$HANDSEED
  5
FFFF
  0
$INSUNITS
 70
 1
 9
ENDSEC
  0
SECTION
  2
TABLES
  0
TABLE
  2
VPORT
  5
8
330
0
100
AcDbSymbolTable
 70
     4
  0
VPORT
  5
2E
330
8
100
AcDbSymbolTableRecord
100
AcDbViewportTableRecord
  2
*ACTIVE
 70
     0
 10
0.0
 20
0.0
 11
1.0
 21
1.0
 12
4.25
 22
5.5
 13
0.0
 23
0.0
 14
10.0
 24
10.0
 15
10.0
 25
10.0
 16
0.0
 26
0.0
 36
1.0
 17
0.0
 27
0.0
 37
0.0
 40
11
 41
1.24
 42
50.0
 43
0.0
 44
0.0
 50
0.0
 51
0.0
 71
     0
 72
   100
 73
     1
 74
     3
 75
     0
 76
     0
 77
     0
 78
     0
  0
ENDTAB
  0
TABLE
  2
LTYPE
  5
5
330
0
100
AcDbSymbolTable
 70
     1
  0
LTYPE
  5
14
330
5
100
AcDbSymbolTableRecord
100
AcDbLinetypeTableRecord
  2
BYBLOCK
 70
     0
  3

 72
    65
 73
     0
 40
0.0
  0
LTYPE
  5
15
330
5
100
AcDbSymbolTableRecord
100
AcDbLinetypeTableRecord
  2
BYLAYER
 70
     0
  3

 72
    65
 73
     0
 40
0.0
  0
LTYPE
  5
16
330
5
100
AcDbSymbolTableRecord
100
AcDbLinetypeTableRecord
  2
CONTINUOUS
 70
     0
  3
Solid line
 72
    65
 73
     0
 40
0.0
  0
ENDTAB
  0
TABLE
  2
STYLE
  5
3
330
0
100
AcDbSymbolTable
 70
     1
  0
STYLE
  5
11
330
3
100
AcDbSymbolTableRecord
100
AcDbTextStyleTableRecord
  2
STANDARD
 70
     0
 40
0.0
 41
1.0
 50
0.0
 71
     0
 42
2.5
  3
txt
  4

  0
ENDTAB
  0
TABLE
  2
VIEW
  5
6
330
0
100
AcDbSymbolTable
 70
     0
  0
ENDTAB
  0
TABLE
  2
UCS
  5
7
330
0
100
AcDbSymbolTable
 70
     0
  0
ENDTAB
  0
TABLE
  2
APPID
  5
9
330
0
100
AcDbSymbolTable
 70
     2
  0
APPID
  5
12
330
9
100
AcDbSymbolTableRecord
100
AcDbRegAppTableRecord
  2
ACAD
 70
     0
  0
ENDTAB
  0
TABLE
  2
DIMSTYLE
  5
A
330
0
100
AcDbSymbolTable
 70
     1
  0
DIMSTYLE
105
27
330
A
100
AcDbSymbolTableRecord
100
AcDbDimStyleTableRecord
  2
ISO-25
 70
     0
  3

  4

  5

  6

  7

 40
1.0
 41
2.5
 42
0.625
 43
3.75
 44
1.25
 45
0.0
 46
0.0
 47
0.0
 48
0.0
140
2.5
141
2.5
142
0.0
143
0.03937007874016
144
1.0
145
0.0
146
1.0
147
0.625
 71
     0
 72
     0
 73
     0
 74
     0
 75
     0
 76
     0
 77
     1
 78
     8
170
     0
171
     3
172
     1
173
     0
174
     0
175
     0
176
     0
177
     0
178
     0
270
     2
271
     2
272
     2
273
     2
274
     3
340
11
275
     0
280
     0
281
     0
282
     0
283
     0
284
     8
285
     0
286
     0
287
     3
288
     0
  0
ENDTAB
  0
TABLE
  2
BLOCK_RECORD
  5
1
330
0
100
AcDbSymbolTable
 70
     1
  0
BLOCK_RECORD
  5
1F
330
1
100
AcDbSymbolTableRecord
100
AcDbBlockTableRecord
  2
*MODEL_SPACE
  0
BLOCK_RECORD
  5
1B
330
1
100
AcDbSymbolTableRecord
100
AcDbBlockTableRecord
  2
*PAPER_SPACE
  0
ENDTAB
0
TABLE
2
LAYER
5
2
330
0
100
AcDbSymbolTable
70
1
0
LAYER
5
10
330
2
100
AcDbSymbolTableRecord
100
AcDbLayerTableRecord
2
Layer_1
70
0
62
7
6
CONTINUOUS
0
ENDTAB
0
ENDSEC
  0
SECTION
  2
BLOCKS
  0
BLOCK
  5
20
330
1F
100
AcDbEntity
  8
0
100
AcDbBlockBegin
  2
*MODEL_SPACE
 70
     0
 10
0.0
 20
0.0
 30
0.0
  3
*MODEL_SPACE
  1

  0
ENDBLK
  5
21
330
1F
100
AcDbEntity
  8
0
100
AcDbBlockEnd
  0
BLOCK
  5
1C
330
1B
100
AcDbEntity
 67
     1
  8
0
100
AcDbBlockBegin
  2
*PAPER_SPACE
  1

  0
ENDBLK
  5
1D
330
1B
100
AcDbEntity
 67
     1
  8
0
100
AcDbBlockEnd
  0
ENDSEC
  0
SECTION
  2
ENTITIES
0
LINE
8
Layer_1
62
5
5
100
100
AcDbEntity
100
AcDbLine
10
0.654813
20
-9.691068
30
0.0
11
0.670699
21
-9.651789
31
0.0
0
LINE
8
Layer_1
62
5
5
101
100
AcDbEntity
100
AcDbLine
10
0.670699
20
-9.651789
30
0.0
11
0.688316
21
-9.615782
31
0.0
0
LINE
8
Layer_1
62
5
5
102
100
AcDbEntity
100
AcDbLine
10
0.688316
20
-9.615782
30
0.0
11
0.707427
21
-9.583531
31
0.0
0
LINE
8
Layer_1
62
5
5
103
100
AcDbEntity
100
AcDbLine
10
0.707427
20
-9.583531
30
0.0
11
0.727771
21
-9.555471
31
0.0
0
LINE
8
Layer_1
62
5
5
104
100
AcDbEntity
100
AcDbLine
10
0.727771
20
-9.555471
30
0.0
11
0.749077
21
-9.531981
31
0.0
0
LINE
8
Layer_1
62
5
5
105
100
AcDbEntity
100
AcDbLine
10
0.749077
20
-9.531981
30
0.0
11
0.771054
21
-9.513378
31
0.0
0
LINE
8
Layer_1
62
5
5
106
100
AcDbEntity
100
AcDbLine
10
0.771054
20
-9.513378
30
0.0
11
0.793409
21
-9.499913
31
0.0
0
LINE
8
Layer_1
62
5
5
107
100
AcDbEntity
100
AcDbLine
10
0.793409
20
-9.499913
30
0.0
11
0.815837
21
-9.491768
31
0.0
0
LINE
8
Layer_1
62
5
5
108
100
AcDbEntity
100
AcDbLine
10
0.815837
20
-9.491768
30
0.0
11
0.838038
21
-9.489053
31
0.0
0
LINE
8
Layer_1
62
5
5
109
100
AcDbEntity
100
AcDbLine
10
0.838038
20
-9.489053
30
0.0
11
0.859712
21
-9.491804
31
0.0
0
LINE
8
Layer_1
62
5
5
10a
100
AcDbEntity
100
AcDbLine
10
0.859712
20
-9.491803
30
0.0
11
0.880565
21
-9.499983
31
0.0
0
LINE
8
Layer_1
62
5
5
10b
100
AcDbEntity
100
AcDbLine
10
0.880565
20
-9.499983
30
0.0
11
0.900318
21
-9.513481
31
0.0
0
LINE
8
Layer_1
62
5
5
10c
100
AcDbEntity
100
AcDbLine
10
0.900318
20
-9.513481
30
0.0
11
0.918702
21
-9.532117
31
0.0
0
LINE
8
Layer_1
62
5
5
10d
100
AcDbEntity
100
AcDbLine
10
0.918702
20
-9.532117
30
0.0
11
0.935472
21
-9.555637
31
0.0
0
LINE
8
Layer_1
62
5
5
10e
100
AcDbEntity
100
AcDbLine
10
0.935472
20
-9.555637
30
0.0
11
0.950398
21
-9.583725
31
0.0
0
LINE
8
Layer_1
62
5
5
10f
100
AcDbEntity
100
AcDbLine
10
0.950398
20
-9.583725
30
0.0
11
0.963281
21
-9.616002
31
0.0
0
LINE
8
Layer_1
62
5
5
110
100
AcDbEntity
100
AcDbLine
10
0.963281
20
-9.616002
30
0.0
11
0.973947
21
-9.652032
31
0.0
0
LINE
8
Layer_1
62
5
5
111
100
AcDbEntity
100
AcDbLine
10
0.973947
20
-9.652032
30
0.0
11
0.982252
21
-9.691329
31
0.0
0
LINE
8
Layer_1
62
5
5
112
100
AcDbEntity
100
AcDbLine
10
0.982252
20
-9.691329
30
0.0
11
0.988084
21
-9.733364
31
0.0
0
LINE
8
Layer_1
62
5
5
113
100
AcDbEntity
100
AcDbLine
10
0.988084
20
-9.733364
30
0.0
11
0.991363
21
-9.777568
31
0.0
0
LINE
8
Layer_1
62
5
5
114
100
AcDbEntity
100
AcDbLine
10
0.991363
20
-9.777568
30
0.0
11
0.992046
21
-9.823346
31
0.0
0
LINE
8
Layer_1
62
5
5
115
100
AcDbEntity
100
AcDbLine
10
0.992046
20
-9.823346
30
0.0
11
0.990123
21
-9.870078
31
0.0
0
LINE
8
Layer_1
62
5
5
116
100
AcDbEntity
100
AcDbLine
10
0.990123
20
-9.870078
30
0.0
11
0.985622
21
-9.917137
31
0.0
0
LINE
8
Layer_1
62
5
5
117
100
AcDbEntity
100
AcDbLine
10
0.985622
20
-9.917137
30
0.0
11
0.978601
21
-9.963886
31
0.0
0
LINE
8
Layer_1
62
5
5
118
100
AcDbEntity
100
AcDbLine
10
0.978601
20
-9.963886
30
0.0
11
0.969156
21
-10.009694
31
0.0
0
LINE
8
Layer_1
62
5
5
119
100
AcDbEntity
100
AcDbLine
10
0.969156
20
-10.009694
30
0.0
11
0.957415
21
-10.053942
31
0.0
0
LINE
8
Layer_1
62
5
5
11a
100
AcDbEntity
100
AcDbLine
10
0.957415
20
-10.053942
30
0.0
11
0.943536
21
-10.096036
31
0.0
0
LINE
8
Layer_1
62
5
5
11b
100
AcDbEntity
100
AcDbLine
10
0.943536
20
-10.096036
30
0.0
11
0.927706
21
-10.135406
31
0.0
0
LINE
8
Layer_1
62
5
5
11c
100
AcDbEntity
100
AcDbLine
10
0.927706
20
-10.135406
30
0.0
11
0.910139
21
-10.171521
31
0.0
0
LINE
8
Layer_1
62
5
5
11d
100
AcDbEntity
100
AcDbLine
10
0.910139
20
-10.171521
30
0.0
11
0.891071
21
-10.203895
31
0.0
0
LINE
8
Layer_1
62
5
5
11e
100
AcDbEntity
100
AcDbLine
10
0.891071
20
-10.203895
30
0.0
11
0.870760
21
-10.232088
31
0.0
0
LINE
8
Layer_1
62
5
5
11f
100
AcDbEntity
100
AcDbLine
10
0.870760
20
-10.232088
30
0.0
11
0.849480
21
-10.255722
31
0.0
0
LINE
8
Layer_1
62
5
5
120
100
AcDbEntity
100
AcDbLine
10
0.849480
20
-10.255722
30
0.0
11
0.827518
21
-10.274479
31
0.0
0
LINE
8
Layer_1
62
5
5
121
100
AcDbEntity
100
AcDbLine
10
0.827518
20
-10.274479
30
0.0
11
0.805171
21
-10.288105
31
0.0
0
LINE
8
Layer_1
62
5
5
122
100
AcDbEntity
100
AcDbLine
10
0.805171
20
-10.288105
30
0.0
11
0.782740
21
-10.296415
31
0.0
0
LINE
8
Layer_1
62
5
5
123
100
AcDbEntity
100
AcDbLine
10
0.782740
20
-10.296415
30
0.0
11
0.760528
21
-10.299297
31
0.0
0
LINE
8
Layer_1
62
5
5
124
100
AcDbEntity
100
AcDbLine
10
0.760528
20
-10.299297
30
0.0
11
0.738833
21
-10.296714
31
0.0
0
LINE
8
Layer_1
62
5
5
125
100
AcDbEntity
100
AcDbLine
10
0.738833
20
-10.296714
30
0.0
11
0.717950
21
-10.288698
31
0.0
0
LINE
8
Layer_1
62
5
5
126
100
AcDbEntity
100
AcDbLine
10
0.717950
20
-10.288698
30
0.0
11
0.698160
21
-10.275360
31
0.0
0
LINE
8
Layer_1
62
5
5
127
100
AcDbEntity
100
AcDbLine
10
0.698160
20
-10.275360
30
0.0
11
0.679729
21
-10.256879
31
0.0
0
LINE
8
Layer_1
62
5
5
128
100
AcDbEntity
100
AcDbLine
10
0.679729
20
-10.256879
30
0.0
11
0.662908
21
-10.233504
31
0.0
0
LINE
8
Layer_1
62
5
5
129
100
AcDbEntity
100
AcDbLine
10
0.662908
20
-10.233504
30
0.0
11
0.647921
21
-10.205550
31
0.0
0
LINE
8
Layer_1
62
5
5
12a
100
AcDbEntity
100
AcDbLine
10
0.647921
20
-10.205550
30
0.0
11
0.634973
21
-10.173396
31
0.0
0
LINE
8
Layer_1
62
5
5
12b
100
AcDbEntity
100
AcDbLine
10
0.634973
20
-10.173396
30
0.0
11
0.624237
21
-10.137474
31
0.0
0
LINE
8
Layer_1
62
5
5
12c
100
AcDbEntity
100
AcDbLine
10
0.624237
20
-10.137474
30
0.0
11
0.615858
21
-10.098268
31
0.0
0
LINE
8
Layer_1
62
5
5
12d
100
AcDbEntity
100
AcDbLine
10
0.615858
20
-10.098268
30
0.0
11
0.609950
21
-10.056309
31
0.0
0
LINE
8
Layer_1
62
5
5
12e
100
AcDbEntity
100
AcDbLine
10
0.609950
20
-10.056309
30
0.0
11
0.606592
21
-10.012162
31
0.0
0
LINE
8
Layer_1
62
5
5
12f
100
AcDbEntity
100
AcDbLine
10
0.611131
20
-10.008948
30
0.0
11
0.626187
21
-10.030520
31
0.0
0
LINE
8
Layer_1
62
5
5
130
100
AcDbEntity
100
AcDbLine
10
0.626187
20
-10.030520
30
0.0
11
0.643701
21
-10.047707
31
0.0
0
LINE
8
Layer_1
62
5
5
131
100
AcDbEntity
100
AcDbLine
10
0.643701
20
-10.047707
30
0.0
11
0.663191
21
-10.060036
31
0.0
0
LINE
8
Layer_1
62
5
5
132
100
AcDbEntity
100
AcDbLine
10
0.663191
20
-10.060036
30
0.0
11
0.684118
21
-10.067166
31
0.0
0
LINE
8
Layer_1
62
5
5
133
100
AcDbEntity
100
AcDbLine
10
0.684118
20
-10.067166
30
0.0
11
0.705909
21
-10.068902
31
0.0
0
LINE
8
Layer_1
62
5
5
134
100
AcDbEntity
100
AcDbLine
10
0.705909
20
-10.068902
30
0.0
11
0.727962
21
-10.065197
31
0.0
0
LINE
8
Layer_1
62
5
5
135
100
AcDbEntity
100
AcDbLine
10
0.727962
20
-10.065197
30
0.0
11
0.749669
21
-10.056151
31
0.0
0
LINE
8
Layer_1
62
5
5
136
100
AcDbEntity
100
AcDbLine
10
0.749669
20
-10.056151
30
0.0
11
0.770434
21
-10.042015
31
0.0
0
LINE
8
Layer_1
62
5
5
137
100
AcDbEntity
100
AcDbLine
10
0.770434
20
-10.042015
30
0.0
11
0.789683
21
-10.023177
31
0.0
0
LINE
8
Layer_1
62
5
5
138
100
AcDbEntity
100
AcDbLine
10
0.789683
20
-10.023177
30
0.0
11
0.806888
21
-10.000156
31
0.0
0
LINE
8
Layer_1
62
5
5
139
100
AcDbEntity
100
AcDbLine
10
0.806888
20
-10.000156
30
0.0
11
0.821575
21
-9.973587
31
0.0
0
LINE
8
Layer_1
62
5
5
13a
100
AcDbEntity
100
AcDbLine
10
0.821575
20
-9.973587
30
0.0
11
0.833338
21
-9.944199
31
0.0
0
LINE
8
Layer_1
62
5
5
13b
100
AcDbEntity
100
AcDbLine
10
0.833338
20
-9.944199
30
0.0
11
0.841855
21
-9.912805
31
0.0
0
LINE
8
Layer_1
62
5
5
13c
100
AcDbEntity
100
AcDbLine
10
0.841855
20
-9.912805
30
0.0
11
0.846892
21
-9.880268
31
0.0
0
LINE
8
Layer_1
62
5
5
13d
100
AcDbEntity
100
AcDbLine
10
0.846890
20
-9.880267
30
0.0
11
0.848305
21
-9.847482
31
0.0
0
LINE
8
Layer_1
62
5
5
13e
100
AcDbEntity
100
AcDbLine
10
0.848305
20
-9.847482
30
0.0
11
0.846060
21
-9.815352
31
0.0
0
LINE
8
Layer_1
62
5
5
13f
100
AcDbEntity
100
AcDbLine
10
0.846060
20
-9.815352
30
0.0
11
0.840218
21
-9.784763
31
0.0
0
LINE
8
Layer_1
62
5
5
140
100
AcDbEntity
100
AcDbLine
10
0.840218
20
-9.784763
30
0.0
11
0.830940
21
-9.756557
31
0.0
0
LINE
8
Layer_1
62
5
5
141
100
AcDbEntity
100
AcDbLine
10
0.830940
20
-9.756557
30
0.0
11
0.818481
21
-9.731510
31
0.0
0
LINE
8
Layer_1
62
5
5
142
100
AcDbEntity
100
AcDbLine
10
0.818481
20
-9.731510
30
0.0
11
0.803184
21
-9.710312
31
0.0
0
LINE
8
Layer_1
62
5
5
143
100
AcDbEntity
100
AcDbLine
10
0.803184
20
-9.710312
30
0.0
11
0.785470
21
-9.693548
31
0.0
0
LINE
8
Layer_1
62
5
5
144
100
AcDbEntity
100
AcDbLine
10
0.785470
20
-9.693548
30
0.0
11
0.765828
21
-9.681678
31
0.0
0
LINE
8
Layer_1
62
5
5
145
100
AcDbEntity
100
AcDbLine
10
0.765828
20
-9.681678
30
0.0
11
0.744798
21
-9.675030
31
0.0
0
LINE
8
Layer_1
62
5
5
146
100
AcDbEntity
100
AcDbLine
10
0.744798
20
-9.675030
30
0.0
11
0.722959
21
-9.673786
31
0.0
0
LINE
8
Layer_1
62
5
5
147
100
AcDbEntity
100
AcDbLine
10
0.722959
20
-9.673786
30
0.0
11
0.700912
21
-9.677982
31
0.0
0
LINE
8
Layer_1
62
5
5
148
100
AcDbEntity
100
AcDbLine
10
0.700912
20
-9.677982
30
0.0
11
0.679266
21
-9.687501
31
0.0
0
LINE
8
Layer_1
62
5
5
149
100
AcDbEntity
100
AcDbLine
10
0.679266
20
-9.687501
30
0.0
11
0.658615
21
-9.702081
31
0.0
0
LINE
8
Layer_1
62
5
5
14a
100
AcDbEntity
100
AcDbLine
10
0.606592
20
-10.012162
30
0.0
11
0.611131
21
-10.008948
31
0.0
0
LINE
8
Layer_1
62
5
5
14b
100
AcDbEntity
100
AcDbLine
10
0.658615
20
-9.702081
30
0.0
11
0.654813
21
-9.691068
31
0.0
0
LINE
8
Layer_1
62
5
5
14c
100
AcDbEntity
100
AcDbLine
10
0.739499
20
-9.091293
30
0.0
11
0.707820
21
-9.105931
31
0.0
0
LINE
8
Layer_1
62
5
5
14d
100
AcDbEntity
100
AcDbLine
10
0.707820
20
-9.105931
30
0.0
11
0.678046
21
-9.128215
31
0.0
0
LINE
8
Layer_1
62
5
5
14e
100
AcDbEntity
100
AcDbLine
10
0.648148
20
-9.159804
30
0.0
11
0.616097
21
-9.202359
31
0.0
0
LINE
8
Layer_1
62
5
5
14f
100
AcDbEntity
100
AcDbLine
10
0.678046
20
-9.128215
30
0.0
11
0.648148
21
-9.159804
31
0.0
0
LINE
8
Layer_1
62
5
5
150
100
AcDbEntity
100
AcDbLine
10
1.105493
20
-9.319558
30
0.0
11
1.094977
21
-9.266132
31
0.0
0
LINE
8
Layer_1
62
5
5
151
100
AcDbEntity
100
AcDbLine
10
1.094977
20
-9.266132
30
0.0
11
1.074097
21
-9.216084
31
0.0
0
LINE
8
Layer_1
62
5
5
152
100
AcDbEntity
100
AcDbLine
10
1.074097
20
-9.216084
30
0.0
11
1.043211
21
-9.171504
31
0.0
0
LINE
8
Layer_1
62
5
5
153
100
AcDbEntity
100
AcDbLine
10
1.043211
20
-9.171504
30
0.0
11
1.002674
21
-9.134480
31
0.0
0
LINE
8
Layer_1
62
5
5
154
100
AcDbEntity
100
AcDbLine
10
1.002674
20
-9.134480
30
0.0
11
0.953381
21
-9.106763
31
0.0
0
LINE
8
Layer_1
62
5
5
155
100
AcDbEntity
100
AcDbLine
10
0.953381
20
-9.106763
30
0.0
11
0.898563
21
-9.088666
31
0.0
0
LINE
8
Layer_1
62
5
5
156
100
AcDbEntity
100
AcDbLine
10
0.898563
20
-9.088666
30
0.0
11
0.842079
21
-9.080105
31
0.0
0
LINE
8
Layer_1
62
5
5
157
100
AcDbEntity
100
AcDbLine
10
0.842079
20
-9.080105
30
0.0
11
0.787790
21
-9.080999
31
0.0
0
LINE
8
Layer_1
62
5
5
158
100
AcDbEntity
100
AcDbLine
10
0.787790
20
-9.080999
30
0.0
11
0.739499
21
-9.091293
31
0.0
0
LINE
8
Layer_1
62
5
5
159
100
AcDbEntity
100
AcDbLine
10
1.028470
20
-9.323601
30
0.0
11
1.105493
21
-9.319558
31
0.0
0
LINE
8
Layer_1
62
5
5
15a
100
AcDbEntity
100
AcDbLine
10
1.028470
20
-9.323601
30
0.0
11
0.949112
21
-9.234472
31
0.0
0
LINE
8
Layer_1
62
5
5
15b
100
AcDbEntity
100
AcDbLine
10
0.949112
20
-9.234472
30
0.0
11
0.846025
21
-9.182231
31
0.0
0
LINE
8
Layer_1
62
5
5
15c
100
AcDbEntity
100
AcDbLine
10
0.846025
20
-9.182231
30
0.0
11
0.731067
21
-9.170364
31
0.0
0
LINE
8
Layer_1
62
5
5
15d
100
AcDbEntity
100
AcDbLine
10
0.731067
20
-9.170364
30
0.0
11
0.616097
21
-9.202359
31
0.0
0
LINE
8
Layer_1
62
5
5
15e
100
AcDbEntity
100
AcDbLine
10
0.410558
20
-9.375514
30
0.0
11
0.468772
21
-9.324918
31
0.0
0
LINE
8
Layer_1
62
5
5
15f
100
AcDbEntity
100
AcDbLine
10
0.468772
20
-9.324918
30
0.0
11
0.399278
21
-9.275404
31
0.0
0
LINE
8
Layer_1
62
5
5
160
100
AcDbEntity
100
AcDbLine
10
0.399278
20
-9.275404
30
0.0
11
0.319793
21
-9.250144
31
0.0
0
LINE
8
Layer_1
62
5
5
161
100
AcDbEntity
100
AcDbLine
10
0.319793
20
-9.250144
30
0.0
11
0.236390
21
-9.250084
31
0.0
0
LINE
8
Layer_1
62
5
5
162
100
AcDbEntity
100
AcDbLine
10
0.236390
20
-9.250084
30
0.0
11
0.155145
21
-9.276166
31
0.0
0
LINE
8
Layer_1
62
5
5
163
100
AcDbEntity
100
AcDbLine
10
0.155145
20
-9.276166
30
0.0
11
0.085935
21
-9.326076
31
0.0
0
LINE
8
Layer_1
62
5
5
164
100
AcDbEntity
100
AcDbLine
10
0.085935
20
-9.326076
30
0.0
11
0.036485
21
-9.393238
31
0.0
0
LINE
8
Layer_1
62
5
5
165
100
AcDbEntity
100
AcDbLine
10
0.036485
20
-9.393238
30
0.0
11
0.009642
21
-9.472203
31
0.0
0
LINE
8
Layer_1
62
5
5
166
100
AcDbEntity
100
AcDbLine
10
0.009642
20
-9.472203
30
0.0
11
0.008249
21
-9.557521
31
0.0
0
LINE
8
Layer_1
62
5
5
167
100
AcDbEntity
100
AcDbLine
10
0.410558
20
-9.375514
30
0.0
11
0.290302
21
-9.364510
31
0.0
0
LINE
8
Layer_1
62
5
5
168
100
AcDbEntity
100
AcDbLine
10
0.290302
20
-9.364510
30
0.0
11
0.176652
21
-9.394123
31
0.0
0
LINE
8
Layer_1
62
5
5
169
100
AcDbEntity
100
AcDbLine
10
0.176652
20
-9.394123
30
0.0
11
0.079377
21
-9.459933
31
0.0
0
LINE
8
Layer_1
62
5
5
16a
100
AcDbEntity
100
AcDbLine
10
0.079377
20
-9.459933
30
0.0
11
0.008249
21
-9.557521
31
0.0
0
LINE
8
Layer_1
62
5
5
16b
100
AcDbEntity
100
AcDbLine
10
0.501794
20
-10.050450
30
0.0
11
0.488678
21
-10.078807
31
0.0
0
LINE
8
Layer_1
62
5
5
16c
100
AcDbEntity
100
AcDbLine
10
0.488678
20
-10.078807
30
0.0
11
0.472940
21
-10.103786
31
0.0
0
LINE
8
Layer_1
62
5
5
16d
100
AcDbEntity
100
AcDbLine
10
0.472940
20
-10.103786
30
0.0
11
0.454975
21
-10.124756
31
0.0
0
LINE
8
Layer_1
62
5
5
16e
100
AcDbEntity
100
AcDbLine
10
0.454975
20
-10.124756
30
0.0
11
0.435236
21
-10.141187
31
0.0
0
LINE
8
Layer_1
62
5
5
16f
100
AcDbEntity
100
AcDbLine
10
0.435236
20
-10.141187
30
0.0
11
0.414223
21
-10.152665
31
0.0
0
LINE
8
Layer_1
62
5
5
170
100
AcDbEntity
100
AcDbLine
10
0.414223
20
-10.152665
30
0.0
11
0.392465
21
-10.158898
31
0.0
0
LINE
8
Layer_1
62
5
5
171
100
AcDbEntity
100
AcDbLine
10
0.392465
20
-10.158898
30
0.0
11
0.370513
21
-10.159731
31
0.0
0
LINE
8
Layer_1
62
5
5
172
100
AcDbEntity
100
AcDbLine
10
0.370513
20
-10.159732
30
0.0
11
0.348921
21
-10.155145
31
0.0
0
LINE
8
Layer_1
62
5
5
173
100
AcDbEntity
100
AcDbLine
10
0.348921
20
-10.155145
30
0.0
11
0.328232
21
-10.145250
31
0.0
0
LINE
8
Layer_1
62
5
5
174
100
AcDbEntity
100
AcDbLine
10
0.328232
20
-10.145250
30
0.0
11
0.308970
21
-10.130301
31
0.0
0
LINE
8
Layer_1
62
5
5
175
100
AcDbEntity
100
AcDbLine
10
0.308970
20
-10.130301
30
0.0
11
0.291622
21
-10.110672
31
0.0
0
LINE
8
Layer_1
62
5
5
176
100
AcDbEntity
100
AcDbLine
10
0.291622
20
-10.110672
30
0.0
11
0.276624
21
-10.086861
31
0.0
0
LINE
8
Layer_1
62
5
5
177
100
AcDbEntity
100
AcDbLine
10
0.276624
20
-10.086861
30
0.0
11
0.264356
21
-10.059468
31
0.0
0
LINE
8
Layer_1
62
5
5
178
100
AcDbEntity
100
AcDbLine
10
0.264356
20
-10.059468
30
0.0
11
0.255127
21
-10.029184
31
0.0
0
LINE
8
Layer_1
62
5
5
179
100
AcDbEntity
100
AcDbLine
10
0.255127
20
-10.029184
30
0.0
11
0.249171
21
-9.996775
31
0.0
0
LINE
8
Layer_1
62
5
5
17a
100
AcDbEntity
100
AcDbLine
10
0.249171
20
-9.996775
30
0.0
11
0.246637
21
-9.963058
31
0.0
0
LINE
8
Layer_1
62
5
5
17b
100
AcDbEntity
100
AcDbLine
10
0.246637
20
-9.963058
30
0.0
11
0.247593
21
-9.928885
31
0.0
0
LINE
8
Layer_1
62
5
5
17c
100
AcDbEntity
100
AcDbLine
10
0.247591
20
-9.928885
30
0.0
11
0.252007
21
-9.895118
31
0.0
0
LINE
8
Layer_1
62
5
5
17d
100
AcDbEntity
100
AcDbLine
10
0.252007
20
-9.895118
30
0.0
11
0.259774
21
-9.862609
31
0.0
0
LINE
8
Layer_1
62
5
5
17e
100
AcDbEntity
100
AcDbLine
10
0.259774
20
-9.862609
30
0.0
11
0.270696
21
-9.832181
31
0.0
0
LINE
8
Layer_1
62
5
5
17f
100
AcDbEntity
100
AcDbLine
10
0.270696
20
-9.832181
30
0.0
11
0.284498
21
-9.804600
31
0.0
0
LINE
8
Layer_1
62
5
5
180
100
AcDbEntity
100
AcDbLine
10
0.284498
20
-9.804600
30
0.0
11
0.300831
21
-9.780564
31
0.0
0
LINE
8
Layer_1
62
5
5
181
100
AcDbEntity
100
AcDbLine
10
0.300831
20
-9.780564
30
0.0
11
0.319282
21
-9.760679
31
0.0
0
LINE
8
Layer_1
62
5
5
182
100
AcDbEntity
100
AcDbLine
10
0.319282
20
-9.760679
30
0.0
11
0.339385
21
-9.745447
31
0.0
0
LINE
8
Layer_1
62
5
5
183
100
AcDbEntity
100
AcDbLine
10
0.339385
20
-9.745447
30
0.0
11
0.360634
21
-9.735252
31
0.0
0
LINE
8
Layer_1
62
5
5
184
100
AcDbEntity
100
AcDbLine
10
0.360634
20
-9.735252
30
0.0
11
0.382492
21
-9.730352
31
0.0
0
LINE
8
Layer_1
62
5
5
185
100
AcDbEntity
100
AcDbLine
10
0.382492
20
-9.730352
30
0.0
11
0.404406
21
-9.730871
31
0.0
0
LINE
8
Layer_1
62
5
5
186
100
AcDbEntity
100
AcDbLine
10
0.404406
20
-9.730871
30
0.0
11
0.425824
21
-9.736795
31
0.0
0
LINE
8
Layer_1
62
5
5
187
100
AcDbEntity
100
AcDbLine
10
0.425824
20
-9.736795
30
0.0
11
0.446205
21
-9.747976
31
0.0
0
LINE
8
Layer_1
62
5
5
188
100
AcDbEntity
100
AcDbLine
10
0.446205
20
-9.747976
30
0.0
11
0.465035
21
-9.764130
31
0.0
0
LINE
8
Layer_1
62
5
5
189
100
AcDbEntity
100
AcDbLine
10
0.465035
20
-9.764130
30
0.0
11
0.481837
21
-9.784850
31
0.0
0
LINE
8
Layer_1
62
5
5
18a
100
AcDbEntity
100
AcDbLine
10
0.481837
20
-9.784850
30
0.0
11
0.496188
21
-9.809612
31
0.0
0
LINE
8
Layer_1
62
5
5
18b
100
AcDbEntity
100
AcDbLine
10
0.496188
20
-9.809612
30
0.0
11
0.507726
21
-9.837792
31
0.0
0
LINE
8
Layer_1
62
5
5
18c
100
AcDbEntity
100
AcDbLine
10
0.527618
20
-9.831955
30
0.0
11
0.520734
21
-9.786160
31
0.0
0
LINE
8
Layer_1
62
5
5
18d
100
AcDbEntity
100
AcDbLine
10
0.520734
20
-9.786160
30
0.0
11
0.511271
21
-9.742259
31
0.0
0
LINE
8
Layer_1
62
5
5
18e
100
AcDbEntity
100
AcDbLine
10
0.511271
20
-9.742259
30
0.0
11
0.499343
21
-9.700786
31
0.0
0
LINE
8
Layer_1
62
5
5
18f
100
AcDbEntity
100
AcDbLine
10
0.499343
20
-9.700786
30
0.0
11
0.485097
21
-9.662248
31
0.0
0
LINE
8
Layer_1
62
5
5
190
100
AcDbEntity
100
AcDbLine
10
0.485097
20
-9.662248
30
0.0
11
0.468707
21
-9.627117
31
0.0
0
LINE
8
Layer_1
62
5
5
191
100
AcDbEntity
100
AcDbLine
10
0.468707
20
-9.627117
30
0.0
11
0.450374
21
-9.595822
31
0.0
0
LINE
8
Layer_1
62
5
5
192
100
AcDbEntity
100
AcDbLine
10
0.450374
20
-9.595822
30
0.0
11
0.430321
21
-9.568745
31
0.0
0
LINE
8
Layer_1
62
5
5
193
100
AcDbEntity
100
AcDbLine
10
0.430321
20
-9.568745
30
0.0
11
0.408792
21
-9.546216
31
0.0
0
LINE
8
Layer_1
62
5
5
194
100
AcDbEntity
100
AcDbLine
10
0.408792
20
-9.546216
30
0.0
11
0.386052
21
-9.528512
31
0.0
0
LINE
8
Layer_1
62
5
5
195
100
AcDbEntity
100
AcDbLine
10
0.386052
20
-9.528512
30
0.0
11
0.362378
21
-9.515848
31
0.0
0
LINE
8
Layer_1
62
5
5
196
100
AcDbEntity
100
AcDbLine
10
0.362378
20
-9.515848
30
0.0
11
0.338060
21
-9.508380
31
0.0
0
LINE
8
Layer_1
62
5
5
197
100
AcDbEntity
100
AcDbLine
10
0.338060
20
-9.508380
30
0.0
11
0.313393
21
-9.506198
31
0.0
0
LINE
8
Layer_1
62
5
5
198
100
AcDbEntity
100
AcDbLine
10
0.313393
20
-9.506198
30
0.0
11
0.288681
21
-9.509329
31
0.0
0
LINE
8
Layer_1
62
5
5
199
100
AcDbEntity
100
AcDbLine
10
0.288681
20
-9.509329
30
0.0
11
0.264224
21
-9.517734
31
0.0
0
LINE
8
Layer_1
62
5
5
19a
100
AcDbEntity
100
AcDbLine
10
0.264224
20
-9.517734
30
0.0
11
0.240323
21
-9.531312
31
0.0
0
LINE
8
Layer_1
62
5
5
19b
100
AcDbEntity
100
AcDbLine
10
0.240323
20
-9.531312
30
0.0
11
0.217267
21
-9.549896
31
0.0
0
LINE
8
Layer_1
62
5
5
19c
100
AcDbEntity
100
AcDbLine
10
0.217267
20
-9.549896
30
0.0
11
0.195341
21
-9.573260
31
0.0
0
LINE
8
Layer_1
62
5
5
19d
100
AcDbEntity
100
AcDbLine
10
0.195341
20
-9.573260
30
0.0
11
0.174810
21
-9.601117
31
0.0
0
LINE
8
Layer_1
62
5
5
19e
100
AcDbEntity
100
AcDbLine
10
0.174810
20
-9.601117
30
0.0
11
0.155926
21
-9.633127
31
0.0
0
LINE
8
Layer_1
62
5
5
19f
100
AcDbEntity
100
AcDbLine
10
0.155926
20
-9.633127
30
0.0
11
0.138921
21
-9.668900
31
0.0
0
LINE
8
Layer_1
62
5
5
1a0
100
AcDbEntity
100
AcDbLine
10
0.138921
20
-9.668900
30
0.0
11
0.124001
21
-9.707998
31
0.0
0
LINE
8
Layer_1
62
5
5
1a1
100
AcDbEntity
100
AcDbLine
10
0.124001
20
-9.707998
30
0.0
11
0.111348
21
-9.749943
31
0.0
0
LINE
8
Layer_1
62
5
5
1a2
100
AcDbEntity
100
AcDbLine
10
0.111348
20
-9.749943
30
0.0
11
0.101118
21
-9.794223
31
0.0
0
LINE
8
Layer_1
62
5
5
1a3
100
AcDbEntity
100
AcDbLine
10
0.101118
20
-9.794223
30
0.0
11
0.093436
21
-9.840297
31
0.0
0
LINE
8
Layer_1
62
5
5
1a4
100
AcDbEntity
100
AcDbLine
10
0.093436
20
-9.840297
30
0.0
11
0.088395
21
-9.887602
31
0.0
0
LINE
8
Layer_1
62
5
5
1a5
100
AcDbEntity
100
AcDbLine
10
0.088395
20
-9.887602
30
0.0
11
0.086057
21
-9.935560
31
0.0
0
LINE
8
Layer_1
62
5
5
1a6
100
AcDbEntity
100
AcDbLine
10
0.086057
20
-9.935560
30
0.0
11
0.086446
21
-9.983586
31
0.0
0
LINE
8
Layer_1
62
5
5
1a7
100
AcDbEntity
100
AcDbLine
10
0.086451
20
-9.983586
30
0.0
11
0.089571
21
-10.031091
31
0.0
0
LINE
8
Layer_1
62
5
5
1a8
100
AcDbEntity
100
AcDbLine
10
0.089571
20
-10.031091
30
0.0
11
0.095380
21
-10.077496
31
0.0
0
LINE
8
Layer_1
62
5
5
1a9
100
AcDbEntity
100
AcDbLine
10
0.095380
20
-10.077496
30
0.0
11
0.103806
21
-10.122234
31
0.0
0
LINE
8
Layer_1
62
5
5
1aa
100
AcDbEntity
100
AcDbLine
10
0.103806
20
-10.122234
30
0.0
11
0.114747
21
-10.164758
31
0.0
0
LINE
8
Layer_1
62
5
5
1ab
100
AcDbEntity
100
AcDbLine
10
0.114747
20
-10.164758
30
0.0
11
0.128070
21
-10.204549
31
0.0
0
LINE
8
Layer_1
62
5
5
1ac
100
AcDbEntity
100
AcDbLine
10
0.128070
20
-10.204549
30
0.0
11
0.143610
21
-10.241120
31
0.0
0
LINE
8
Layer_1
62
5
5
1ad
100
AcDbEntity
100
AcDbLine
10
0.143610
20
-10.241120
30
0.0
11
0.161178
21
-10.274025
31
0.0
0
LINE
8
Layer_1
62
5
5
1ae
100
AcDbEntity
100
AcDbLine
10
0.161178
20
-10.274025
30
0.0
11
0.180560
21
-10.302861
31
0.0
0
LINE
8
Layer_1
62
5
5
1af
100
AcDbEntity
100
AcDbLine
10
0.180560
20
-10.302861
30
0.0
11
0.201520
21
-10.327277
31
0.0
0
LINE
8
Layer_1
62
5
5
1b0
100
AcDbEntity
100
AcDbLine
10
0.201520
20
-10.327277
30
0.0
11
0.223798
21
-10.346974
31
0.0
0
LINE
8
Layer_1
62
5
5
1b1
100
AcDbEntity
100
AcDbLine
10
0.223798
20
-10.346974
30
0.0
11
0.247127
21
-10.361710
31
0.0
0
LINE
8
Layer_1
62
5
5
1b2
100
AcDbEntity
100
AcDbLine
10
0.247127
20
-10.361710
30
0.0
11
0.271218
21
-10.371307
31
0.0
0
LINE
8
Layer_1
62
5
5
1b3
100
AcDbEntity
100
AcDbLine
10
0.271218
20
-10.371307
30
0.0
11
0.295780
21
-10.375647
31
0.0
0
LINE
8
Layer_1
62
5
5
1b4
100
AcDbEntity
100
AcDbLine
10
0.320510
20
-10.374677
30
0.0
11
0.345107
21
-10.368408
31
0.0
0
LINE
8
Layer_1
62
5
5
1b5
100
AcDbEntity
100
AcDbLine
10
0.345107
20
-10.368408
30
0.0
11
0.369270
21
-10.356918
31
0.0
0
LINE
8
Layer_1
62
5
5
1b6
100
AcDbEntity
100
AcDbLine
10
0.369270
20
-10.356918
30
0.0
11
0.392704
21
-10.340347
31
0.0
0
LINE
8
Layer_1
62
5
5
1b7
100
AcDbEntity
100
AcDbLine
10
0.392704
20
-10.340347
30
0.0
11
0.415124
21
-10.318897
31
0.0
0
LINE
8
Layer_1
62
5
5
1b8
100
AcDbEntity
100
AcDbLine
10
0.415124
20
-10.318897
30
0.0
11
0.436254
21
-10.292830
31
0.0
0
LINE
8
Layer_1
62
5
5
1b9
100
AcDbEntity
100
AcDbLine
10
0.436254
20
-10.292830
30
0.0
11
0.455836
21
-10.262465
31
0.0
0
LINE
8
Layer_1
62
5
5
1ba
100
AcDbEntity
100
AcDbLine
10
0.455836
20
-10.262465
30
0.0
11
0.473633
21
-10.228172
31
0.0
0
LINE
8
Layer_1
62
5
5
1bb
100
AcDbEntity
100
AcDbLine
10
0.473633
20
-10.228172
30
0.0
11
0.489425
21
-10.190372
31
0.0
0
LINE
8
Layer_1
62
5
5
1bc
100
AcDbEntity
100
AcDbLine
10
0.489425
20
-10.190372
30
0.0
11
0.503020
21
-10.149526
31
0.0
0
LINE
8
Layer_1
62
5
5
1bd
100
AcDbEntity
100
AcDbLine
10
0.503020
20
-10.149526
30
0.0
11
0.514252
21
-10.106131
31
0.0
0
LINE
8
Layer_1
62
5
5
1be
100
AcDbEntity
100
AcDbLine
10
0.514252
20
-10.106131
30
0.0
11
0.522984
21
-10.060720
31
0.0
0
LINE
8
Layer_1
62
5
5
1bf
100
AcDbEntity
100
AcDbLine
10
0.507726
20
-9.837792
30
0.0
11
0.527618
21
-9.831955
31
0.0
0
LINE
8
Layer_1
62
5
5
1c0
100
AcDbEntity
100
AcDbLine
10
0.522984
20
-10.060720
30
0.0
11
0.501794
21
-10.050450
31
0.0
0
LINE
8
Layer_1
62
5
5
1c1
100
AcDbEntity
100
AcDbLine
10
0.296298
20
-10.378124
30
0.0
11
0.319935
21
-10.370786
31
0.0
  0
ENDSEC
  0
SECTION
  2
OBJECTS
  0
DICTIONARY
  5
C
330
0
100
AcDbDictionary
  3
ACAD_GROUP
350
D
  3
ACAD_MLINESTYLE
350
17
  0
DICTIONARY
  5
D
330
C
100
AcDbDictionary
  0
DICTIONARY
  5
1A
330
C
100
AcDbDictionary
  0
DICTIONARY
  5
17
330
C
100
AcDbDictionary
  3
STANDARD
350
18
  0
DICTIONARY
  5
19
330
C
100
AcDbDictionary
  0
ENDSEC
  0
EOF
