999
Inkscape export via Big Blue Saws DXF Export" (http://www.bigbluesaw.com/saw/big-blue-saw-blog/general-updates/big-blue-saws-dxf-export-for-inkscape.html)
  0
SECTION
  2
HEADER
  9
$ACADVER
  1
AC1014
  9
$HANDSEED
  5
FFFF
  0
$INSUNITS
 70
 1
 9
ENDSEC
  0
SECTION
  2
TABLES
  0
TABLE
  2
VPORT
  5
8
330
0
100
AcDbSymbolTable
 70
     4
  0
VPORT
  5
2E
330
8
100
AcDbSymbolTableRecord
100
AcDbViewportTableRecord
  2
*ACTIVE
 70
     0
 10
0.0
 20
0.0
 11
1.0
 21
1.0
 12
4.25
 22
5.5
 13
0.0
 23
0.0
 14
10.0
 24
10.0
 15
10.0
 25
10.0
 16
0.0
 26
0.0
 36
1.0
 17
0.0
 27
0.0
 37
0.0
 40
11
 41
1.24
 42
50.0
 43
0.0
 44
0.0
 50
0.0
 51
0.0
 71
     0
 72
   100
 73
     1
 74
     3
 75
     0
 76
     0
 77
     0
 78
     0
  0
ENDTAB
  0
TABLE
  2
LTYPE
  5
5
330
0
100
AcDbSymbolTable
 70
     1
  0
LTYPE
  5
14
330
5
100
AcDbSymbolTableRecord
100
AcDbLinetypeTableRecord
  2
BYBLOCK
 70
     0
  3

 72
    65
 73
     0
 40
0.0
  0
LTYPE
  5
15
330
5
100
AcDbSymbolTableRecord
100
AcDbLinetypeTableRecord
  2
BYLAYER
 70
     0
  3

 72
    65
 73
     0
 40
0.0
  0
LTYPE
  5
16
330
5
100
AcDbSymbolTableRecord
100
AcDbLinetypeTableRecord
  2
CONTINUOUS
 70
     0
  3
Solid line
 72
    65
 73
     0
 40
0.0
  0
ENDTAB
  0
TABLE
  2
STYLE
  5
3
330
0
100
AcDbSymbolTable
 70
     1
  0
STYLE
  5
11
330
3
100
AcDbSymbolTableRecord
100
AcDbTextStyleTableRecord
  2
STANDARD
 70
     0
 40
0.0
 41
1.0
 50
0.0
 71
     0
 42
2.5
  3
txt
  4

  0
ENDTAB
  0
TABLE
  2
VIEW
  5
6
330
0
100
AcDbSymbolTable
 70
     0
  0
ENDTAB
  0
TABLE
  2
UCS
  5
7
330
0
100
AcDbSymbolTable
 70
     0
  0
ENDTAB
  0
TABLE
  2
APPID
  5
9
330
0
100
AcDbSymbolTable
 70
     2
  0
APPID
  5
12
330
9
100
AcDbSymbolTableRecord
100
AcDbRegAppTableRecord
  2
ACAD
 70
     0
  0
ENDTAB
  0
TABLE
  2
DIMSTYLE
  5
A
330
0
100
AcDbSymbolTable
 70
     1
  0
DIMSTYLE
105
27
330
A
100
AcDbSymbolTableRecord
100
AcDbDimStyleTableRecord
  2
ISO-25
 70
     0
  3

  4

  5

  6

  7

 40
1.0
 41
2.5
 42
0.625
 43
3.75
 44
1.25
 45
0.0
 46
0.0
 47
0.0
 48
0.0
140
2.5
141
2.5
142
0.0
143
0.03937007874016
144
1.0
145
0.0
146
1.0
147
0.625
 71
     0
 72
     0
 73
     0
 74
     0
 75
     0
 76
     0
 77
     1
 78
     8
170
     0
171
     3
172
     1
173
     0
174
     0
175
     0
176
     0
177
     0
178
     0
270
     2
271
     2
272
     2
273
     2
274
     3
340
11
275
     0
280
     0
281
     0
282
     0
283
     0
284
     8
285
     0
286
     0
287
     3
288
     0
  0
ENDTAB
  0
TABLE
  2
BLOCK_RECORD
  5
1
330
0
100
AcDbSymbolTable
 70
     1
  0
BLOCK_RECORD
  5
1F
330
1
100
AcDbSymbolTableRecord
100
AcDbBlockTableRecord
  2
*MODEL_SPACE
  0
BLOCK_RECORD
  5
1B
330
1
100
AcDbSymbolTableRecord
100
AcDbBlockTableRecord
  2
*PAPER_SPACE
  0
ENDTAB
0
TABLE
2
LAYER
5
2
330
0
100
AcDbSymbolTable
70
1
0
LAYER
5
10
330
2
100
AcDbSymbolTableRecord
100
AcDbLayerTableRecord
2
Default
70
0
62
7
6
CONTINUOUS
0
ENDTAB
0
ENDSEC
  0
SECTION
  2
BLOCKS
  0
BLOCK
  5
20
330
1F
100
AcDbEntity
  8
0
100
AcDbBlockBegin
  2
*MODEL_SPACE
 70
     0
 10
0.0
 20
0.0
 30
0.0
  3
*MODEL_SPACE
  1

  0
ENDBLK
  5
21
330
1F
100
AcDbEntity
  8
0
100
AcDbBlockEnd
  0
BLOCK
  5
1C
330
1B
100
AcDbEntity
 67
     1
  8
0
100
AcDbBlockBegin
  2
*PAPER_SPACE
  1

  0
ENDBLK
  5
1D
330
1B
100
AcDbEntity
 67
     1
  8
0
100
AcDbBlockEnd
  0
ENDSEC
  0
SECTION
  2
ENTITIES
0
LINE
8
Default
62
5
5
100
100
AcDbEntity
100
AcDbLine
10
-4.652256
20
7.566908
30
0.0
11
-4.618161
21
7.586594
31
0.0
0
LINE
8
Default
62
5
5
101
100
AcDbEntity
100
AcDbLine
10
-4.706037
20
7.581319
30
0.0
11
-4.809383
21
7.760320
31
0.0
0
LINE
8
Default
62
5
5
102
100
AcDbEntity
100
AcDbLine
10
-4.794973
20
7.814100
30
0.0
11
-4.726782
21
7.853472
31
0.0
0
LINE
8
Default
62
5
5
103
100
AcDbEntity
100
AcDbLine
10
-4.712371
20
7.907252
30
0.0
11
-4.889537
21
8.214110
31
0.0
0
LINE
8
Default
62
5
5
104
100
AcDbEntity
100
AcDbLine
10
-4.943317
20
8.228522
30
0.0
11
-5.011508
21
8.189152
31
0.0
0
LINE
8
Default
62
5
5
105
100
AcDbEntity
100
AcDbLine
10
-5.065289
20
8.203562
30
0.0
11
-5.168635
21
8.382563
31
0.0
0
LINE
8
Default
62
5
5
106
100
AcDbEntity
100
AcDbLine
10
-5.154225
20
8.436344
30
0.0
11
-5.120129
21
8.456028
31
0.0
0
LINE
8
Default
62
5
5
107
100
AcDbEntity
100
AcDbLine
10
-5.120129
20
8.456028
30
0.0
11
-5.129972
21
8.473076
31
0.0
0
LINE
8
Default
62
5
5
108
100
AcDbEntity
100
AcDbLine
10
-5.111340
20
8.495924
30
0.0
11
-5.129972
21
8.473076
31
0.0
0
LINE
8
Default
62
5
5
109
100
AcDbEntity
100
AcDbLine
10
-5.224657
20
8.637076
30
0.0
11
-5.111340
21
8.495924
31
0.0
0
LINE
8
Default
62
5
5
10a
100
AcDbEntity
100
AcDbLine
10
-5.224657
20
8.637076
30
0.0
11
-5.254184
21
8.688219
31
0.0
0
LINE
8
Default
62
5
5
10b
100
AcDbEntity
100
AcDbLine
10
-5.254184
20
8.688219
30
0.0
11
-6.191810
21
8.146880
31
0.0
0
LINE
8
Default
62
5
5
10c
100
AcDbEntity
100
AcDbLine
10
-5.944566
20
7.718642
30
0.0
11
-6.191810
21
8.146880
31
0.0
0
LINE
8
Default
62
5
5
10d
100
AcDbEntity
100
AcDbLine
10
-5.944566
20
7.718642
30
0.0
11
-6.055376
21
7.654665
31
0.0
0
LINE
8
Default
62
5
5
10e
100
AcDbEntity
100
AcDbLine
10
-6.055376
20
7.654665
30
0.0
11
-5.779786
21
7.177328
31
0.0
0
LINE
8
Default
62
5
5
10f
100
AcDbEntity
100
AcDbLine
10
-5.779786
20
7.177328
30
0.0
11
-5.668975
21
7.241304
31
0.0
0
LINE
8
Default
62
5
5
110
100
AcDbEntity
100
AcDbLine
10
-5.421731
20
6.813065
30
0.0
11
-5.668975
21
7.241304
31
0.0
0
LINE
8
Default
62
5
5
111
100
AcDbEntity
100
AcDbLine
10
-4.484105
20
7.354404
30
0.0
11
-5.421731
21
6.813065
31
0.0
0
LINE
8
Default
62
5
5
112
100
AcDbEntity
100
AcDbLine
10
-4.513633
20
7.405547
30
0.0
11
-4.484105
21
7.354404
31
0.0
0
LINE
8
Default
62
5
5
113
100
AcDbEntity
100
AcDbLine
10
-4.513633
20
7.405547
30
0.0
11
-4.579216
21
7.574258
31
0.0
0
LINE
8
Default
62
5
5
114
100
AcDbEntity
100
AcDbLine
10
-4.579216
20
7.574258
30
0.0
11
-4.608318
21
7.569546
31
0.0
0
LINE
8
Default
62
5
5
115
100
AcDbEntity
100
AcDbLine
10
-4.618161
20
7.586594
30
0.0
11
-4.608318
21
7.569546
31
0.0
0
LINE
8
Default
62
5
5
116
100
AcDbEntity
100
AcDbLine
10
-4.706037
20
7.581319
30
0.0
11
-4.682131
21
7.562975
31
0.0
0
LINE
8
Default
62
5
5
117
100
AcDbEntity
100
AcDbLine
10
-4.682131
20
7.562975
30
0.0
11
-4.652256
21
7.566908
31
0.0
0
LINE
8
Default
62
5
5
118
100
AcDbEntity
100
AcDbLine
10
-4.794973
20
7.814100
30
0.0
11
-4.813316
21
7.790195
31
0.0
0
LINE
8
Default
62
5
5
119
100
AcDbEntity
100
AcDbLine
10
-4.813316
20
7.790195
30
0.0
11
-4.809383
21
7.760320
31
0.0
0
LINE
8
Default
62
5
5
11a
100
AcDbEntity
100
AcDbLine
10
-4.726782
20
7.853472
30
0.0
11
-4.708438
21
7.877377
31
0.0
0
LINE
8
Default
62
5
5
11b
100
AcDbEntity
100
AcDbLine
10
-4.708438
20
7.877377
30
0.0
11
-4.712371
21
7.907252
31
0.0
0
LINE
8
Default
62
5
5
11c
100
AcDbEntity
100
AcDbLine
10
-4.889537
20
8.214110
30
0.0
11
-4.913442
21
8.232454
31
0.0
0
LINE
8
Default
62
5
5
11d
100
AcDbEntity
100
AcDbLine
10
-4.913442
20
8.232454
30
0.0
11
-4.943317
21
8.228522
31
0.0
0
LINE
8
Default
62
5
5
11e
100
AcDbEntity
100
AcDbLine
10
-5.065289
20
8.203562
30
0.0
11
-5.041383
21
8.185218
31
0.0
0
LINE
8
Default
62
5
5
11f
100
AcDbEntity
100
AcDbLine
10
-5.041383
20
8.185218
30
0.0
11
-5.011508
21
8.189152
31
0.0
0
LINE
8
Default
62
5
5
120
100
AcDbEntity
100
AcDbLine
10
-5.154225
20
8.436344
30
0.0
11
-5.172568
21
8.412438
31
0.0
0
LINE
8
Default
62
5
5
121
100
AcDbEntity
100
AcDbLine
10
-5.172568
20
8.412438
30
0.0
11
-5.168635
21
8.382563
31
0.0
0
LINE
8
Default
62
5
5
122
100
AcDbEntity
100
AcDbLine
10
8.051722
20
8.436344
30
0.0
11
8.017627
21
8.456028
31
0.0
0
LINE
8
Default
62
5
5
123
100
AcDbEntity
100
AcDbLine
10
8.066133
20
8.382563
30
0.0
11
7.962787
21
8.203562
31
0.0
0
LINE
8
Default
62
5
5
124
100
AcDbEntity
100
AcDbLine
10
7.909006
20
8.189152
30
0.0
11
7.840814
21
8.228522
31
0.0
0
LINE
8
Default
62
5
5
125
100
AcDbEntity
100
AcDbLine
10
7.787034
20
8.214110
30
0.0
11
7.609869
21
7.907252
31
0.0
0
LINE
8
Default
62
5
5
126
100
AcDbEntity
100
AcDbLine
10
7.624279
20
7.853472
30
0.0
11
7.692470
21
7.814100
31
0.0
0
LINE
8
Default
62
5
5
127
100
AcDbEntity
100
AcDbLine
10
7.706881
20
7.760320
30
0.0
11
7.603534
21
7.581319
31
0.0
0
LINE
8
Default
62
5
5
128
100
AcDbEntity
100
AcDbLine
10
7.549753
20
7.566908
30
0.0
11
7.515658
21
7.586594
31
0.0
0
LINE
8
Default
62
5
5
129
100
AcDbEntity
100
AcDbLine
10
7.515658
20
7.586594
30
0.0
11
7.505816
21
7.569546
31
0.0
0
LINE
8
Default
62
5
5
12a
100
AcDbEntity
100
AcDbLine
10
7.476713
20
7.574258
30
0.0
11
7.505816
21
7.569546
31
0.0
0
LINE
8
Default
62
5
5
12b
100
AcDbEntity
100
AcDbLine
10
7.411131
20
7.405547
30
0.0
11
7.476713
21
7.574258
31
0.0
0
LINE
8
Default
62
5
5
12c
100
AcDbEntity
100
AcDbLine
10
7.411131
20
7.405547
30
0.0
11
7.381603
21
7.354404
31
0.0
0
LINE
8
Default
62
5
5
12d
100
AcDbEntity
100
AcDbLine
10
7.381603
20
7.354404
30
0.0
11
8.319229
21
6.813065
31
0.0
0
LINE
8
Default
62
5
5
12e
100
AcDbEntity
100
AcDbLine
10
8.566473
20
7.241304
30
0.0
11
8.319229
21
6.813065
31
0.0
0
LINE
8
Default
62
5
5
12f
100
AcDbEntity
100
AcDbLine
10
8.566473
20
7.241304
30
0.0
11
8.677283
21
7.177328
31
0.0
0
LINE
8
Default
62
5
5
130
100
AcDbEntity
100
AcDbLine
10
8.677283
20
7.177328
30
0.0
11
8.952874
21
7.654665
31
0.0
0
LINE
8
Default
62
5
5
131
100
AcDbEntity
100
AcDbLine
10
8.952874
20
7.654665
30
0.0
11
8.842063
21
7.718642
31
0.0
0
LINE
8
Default
62
5
5
132
100
AcDbEntity
100
AcDbLine
10
9.089308
20
8.146880
30
0.0
11
8.842063
21
7.718642
31
0.0
0
LINE
8
Default
62
5
5
133
100
AcDbEntity
100
AcDbLine
10
8.151682
20
8.688219
30
0.0
11
9.089308
21
8.146880
31
0.0
0
LINE
8
Default
62
5
5
134
100
AcDbEntity
100
AcDbLine
10
8.122154
20
8.637076
30
0.0
11
8.151682
21
8.688219
31
0.0
0
LINE
8
Default
62
5
5
135
100
AcDbEntity
100
AcDbLine
10
8.122154
20
8.637076
30
0.0
11
8.008838
21
8.495924
31
0.0
0
LINE
8
Default
62
5
5
136
100
AcDbEntity
100
AcDbLine
10
8.008838
20
8.495924
30
0.0
11
8.027469
21
8.473076
31
0.0
0
LINE
8
Default
62
5
5
137
100
AcDbEntity
100
AcDbLine
10
8.017627
20
8.456028
30
0.0
11
8.027469
21
8.473076
31
0.0
0
LINE
8
Default
62
5
5
138
100
AcDbEntity
100
AcDbLine
10
8.066133
20
8.382563
30
0.0
11
8.070066
21
8.412438
31
0.0
0
LINE
8
Default
62
5
5
139
100
AcDbEntity
100
AcDbLine
10
8.070066
20
8.412438
30
0.0
11
8.051722
21
8.436344
31
0.0
0
LINE
8
Default
62
5
5
13a
100
AcDbEntity
100
AcDbLine
10
7.909006
20
8.189152
30
0.0
11
7.938881
21
8.185218
31
0.0
0
LINE
8
Default
62
5
5
13b
100
AcDbEntity
100
AcDbLine
10
7.938881
20
8.185218
30
0.0
11
7.962787
21
8.203562
31
0.0
0
LINE
8
Default
62
5
5
13c
100
AcDbEntity
100
AcDbLine
10
7.840814
20
8.228522
30
0.0
11
7.810940
21
8.232454
31
0.0
0
LINE
8
Default
62
5
5
13d
100
AcDbEntity
100
AcDbLine
10
7.810940
20
8.232454
30
0.0
11
7.787034
21
8.214110
31
0.0
0
LINE
8
Default
62
5
5
13e
100
AcDbEntity
100
AcDbLine
10
7.609869
20
7.907252
30
0.0
11
7.605936
21
7.877377
31
0.0
0
LINE
8
Default
62
5
5
13f
100
AcDbEntity
100
AcDbLine
10
7.605936
20
7.877377
30
0.0
11
7.624279
21
7.853472
31
0.0
0
LINE
8
Default
62
5
5
140
100
AcDbEntity
100
AcDbLine
10
7.706881
20
7.760320
30
0.0
11
7.710814
21
7.790195
31
0.0
0
LINE
8
Default
62
5
5
141
100
AcDbEntity
100
AcDbLine
10
7.710814
20
7.790195
30
0.0
11
7.692470
21
7.814100
31
0.0
0
LINE
8
Default
62
5
5
142
100
AcDbEntity
100
AcDbLine
10
7.549753
20
7.566908
30
0.0
11
7.579629
21
7.562975
31
0.0
0
LINE
8
Default
62
5
5
143
100
AcDbEntity
100
AcDbLine
10
7.579629
20
7.562975
30
0.0
11
7.603534
21
7.581319
31
0.0
0
LINE
8
Default
62
5
5
144
100
AcDbEntity
100
AcDbLine
10
0.946781
20
18.964225
30
0.0
11
0.927096
21
18.964225
31
0.0
0
LINE
8
Default
62
5
5
145
100
AcDbEntity
100
AcDbLine
10
0.946781
20
19.003595
30
0.0
11
0.946781
21
18.964225
31
0.0
0
LINE
8
Default
62
5
5
146
100
AcDbEntity
100
AcDbLine
10
0.986151
20
19.042965
30
0.0
11
1.192844
21
19.042965
31
0.0
0
LINE
8
Default
62
5
5
147
100
AcDbEntity
100
AcDbLine
10
1.232214
20
19.003595
30
0.0
11
1.232214
21
18.924855
31
0.0
0
LINE
8
Default
62
5
5
148
100
AcDbEntity
100
AcDbLine
10
1.271584
20
18.885485
30
0.0
11
1.625915
21
18.885485
31
0.0
0
LINE
8
Default
62
5
5
149
100
AcDbEntity
100
AcDbLine
10
1.665285
20
18.924855
30
0.0
11
1.665285
21
19.003595
31
0.0
0
LINE
8
Default
62
5
5
14a
100
AcDbEntity
100
AcDbLine
10
1.704655
20
19.042965
30
0.0
11
1.911347
21
19.042965
31
0.0
0
LINE
8
Default
62
5
5
14b
100
AcDbEntity
100
AcDbLine
10
1.950717
20
19.003595
30
0.0
11
1.950717
21
18.964225
31
0.0
0
LINE
8
Default
62
5
5
14c
100
AcDbEntity
100
AcDbLine
10
1.950717
20
18.964225
30
0.0
11
1.970403
21
18.964225
31
0.0
0
LINE
8
Default
62
5
5
14d
100
AcDbEntity
100
AcDbLine
10
1.980873
20
18.936666
30
0.0
11
1.970403
21
18.964225
31
0.0
0
LINE
8
Default
62
5
5
14e
100
AcDbEntity
100
AcDbLine
10
2.159773
20
18.964225
30
0.0
11
1.980873
21
18.936666
31
0.0
0
LINE
8
Default
62
5
5
14f
100
AcDbEntity
100
AcDbLine
10
2.159773
20
18.964225
30
0.0
11
2.218828
21
18.964225
31
0.0
0
LINE
8
Default
62
5
5
150
100
AcDbEntity
100
AcDbLine
10
2.218828
20
18.964225
30
0.0
11
2.218828
21
20.046901
31
0.0
0
LINE
8
Default
62
5
5
151
100
AcDbEntity
100
AcDbLine
10
1.724339
20
20.046901
30
0.0
11
2.218828
21
20.046901
31
0.0
0
LINE
8
Default
62
5
5
152
100
AcDbEntity
100
AcDbLine
10
1.724339
20
20.046901
30
0.0
11
1.724339
21
20.174855
31
0.0
0
LINE
8
Default
62
5
5
153
100
AcDbEntity
100
AcDbLine
10
1.724339
20
20.174855
30
0.0
11
1.173158
21
20.174855
31
0.0
0
LINE
8
Default
62
5
5
154
100
AcDbEntity
100
AcDbLine
10
1.173158
20
20.174855
30
0.0
11
1.173158
21
20.046901
31
0.0
0
LINE
8
Default
62
5
5
155
100
AcDbEntity
100
AcDbLine
10
0.678671
20
20.046901
30
0.0
11
1.173158
21
20.046901
31
0.0
0
LINE
8
Default
62
5
5
156
100
AcDbEntity
100
AcDbLine
10
0.678671
20
18.964225
30
0.0
11
0.678671
21
20.046901
31
0.0
0
LINE
8
Default
62
5
5
157
100
AcDbEntity
100
AcDbLine
10
0.737725
20
18.964225
30
0.0
11
0.678671
21
18.964225
31
0.0
0
LINE
8
Default
62
5
5
158
100
AcDbEntity
100
AcDbLine
10
0.737725
20
18.964225
30
0.0
11
0.916625
21
18.936666
31
0.0
0
LINE
8
Default
62
5
5
159
100
AcDbEntity
100
AcDbLine
10
0.916625
20
18.936666
30
0.0
11
0.927096
21
18.964225
31
0.0
0
LINE
8
Default
62
5
5
15a
100
AcDbEntity
100
AcDbLine
10
0.986151
20
19.042965
30
0.0
11
0.958312
21
19.031434
31
0.0
0
LINE
8
Default
62
5
5
15b
100
AcDbEntity
100
AcDbLine
10
0.958312
20
19.031434
30
0.0
11
0.946781
21
19.003595
31
0.0
0
LINE
8
Default
62
5
5
15c
100
AcDbEntity
100
AcDbLine
10
1.232214
20
19.003595
30
0.0
11
1.220683
21
19.031434
31
0.0
0
LINE
8
Default
62
5
5
15d
100
AcDbEntity
100
AcDbLine
10
1.220683
20
19.031434
30
0.0
11
1.192844
21
19.042965
31
0.0
0
LINE
8
Default
62
5
5
15e
100
AcDbEntity
100
AcDbLine
10
1.232214
20
18.924855
30
0.0
11
1.243745
21
18.897016
31
0.0
0
LINE
8
Default
62
5
5
15f
100
AcDbEntity
100
AcDbLine
10
1.243745
20
18.897016
30
0.0
11
1.271584
21
18.885485
31
0.0
0
LINE
8
Default
62
5
5
160
100
AcDbEntity
100
AcDbLine
10
1.625915
20
18.885485
30
0.0
11
1.653754
21
18.897016
31
0.0
0
LINE
8
Default
62
5
5
161
100
AcDbEntity
100
AcDbLine
10
1.653754
20
18.897016
30
0.0
11
1.665285
21
18.924855
31
0.0
0
LINE
8
Default
62
5
5
162
100
AcDbEntity
100
AcDbLine
10
1.704655
20
19.042965
30
0.0
11
1.676816
21
19.031434
31
0.0
0
LINE
8
Default
62
5
5
163
100
AcDbEntity
100
AcDbLine
10
1.676816
20
19.031434
30
0.0
11
1.665285
21
19.003595
31
0.0
0
LINE
8
Default
62
5
5
164
100
AcDbEntity
100
AcDbLine
10
1.950717
20
19.003595
30
0.0
11
1.939186
21
19.031434
31
0.0
0
LINE
8
Default
62
5
5
165
100
AcDbEntity
100
AcDbLine
10
1.939186
20
19.031434
30
0.0
11
1.911347
21
19.042965
31
0.0
0
LINE
8
Default
62
1
5
166
100
AcDbEntity
100
AcDbLine
10
5.878221
20
18.611540
30
0.0
11
5.641198
21
18.819679
31
0.0
0
LINE
8
Default
62
1
5
167
100
AcDbEntity
100
AcDbLine
10
5.641198
20
18.819679
30
0.0
11
5.396801
21
19.014390
31
0.0
0
LINE
8
Default
62
1
5
168
100
AcDbEntity
100
AcDbLine
10
5.396801
20
19.014390
30
0.0
11
4.887854
21
19.363527
31
0.0
0
LINE
8
Default
62
1
5
169
100
AcDbEntity
100
AcDbLine
10
4.887854
20
19.363527
30
0.0
11
4.355311
21
19.658950
31
0.0
0
LINE
8
Default
62
1
5
16a
100
AcDbEntity
100
AcDbLine
10
4.355311
20
19.658950
30
0.0
11
3.803106
21
19.900660
31
0.0
0
LINE
8
Default
62
1
5
16b
100
AcDbEntity
100
AcDbLine
10
3.803106
20
19.900660
30
0.0
11
3.235170
21
20.088656
31
0.0
0
LINE
8
Default
62
1
5
16c
100
AcDbEntity
100
AcDbLine
10
3.235170
20
20.088656
30
0.0
11
2.655437
21
20.222940
31
0.0
0
LINE
8
Default
62
1
5
16d
100
AcDbEntity
100
AcDbLine
10
2.655437
20
20.222940
30
0.0
11
2.067839
21
20.303510
31
0.0
0
LINE
8
Default
62
1
5
16e
100
AcDbEntity
100
AcDbLine
10
2.067839
20
20.303510
30
0.0
11
1.476308
21
20.330366
31
0.0
0
LINE
8
Default
62
1
5
16f
100
AcDbEntity
100
AcDbLine
10
1.476308
20
20.330366
30
0.0
11
0.884777
21
20.303510
31
0.0
0
LINE
8
Default
62
1
5
170
100
AcDbEntity
100
AcDbLine
10
0.884777
20
20.303510
30
0.0
11
0.297179
21
20.222940
31
0.0
0
LINE
8
Default
62
1
5
171
100
AcDbEntity
100
AcDbLine
10
0.297179
20
20.222940
30
0.0
11
-0.282555
21
20.088656
31
0.0
0
LINE
8
Default
62
1
5
172
100
AcDbEntity
100
AcDbLine
10
-0.282555
20
20.088656
30
0.0
11
-0.850490
21
19.900660
31
0.0
0
LINE
8
Default
62
1
5
173
100
AcDbEntity
100
AcDbLine
10
-0.850490
20
19.900660
30
0.0
11
-1.402696
21
19.658950
31
0.0
0
LINE
8
Default
62
1
5
174
100
AcDbEntity
100
AcDbLine
10
-1.402696
20
19.658950
30
0.0
11
-1.935238
21
19.363527
31
0.0
0
LINE
8
Default
62
1
5
175
100
AcDbEntity
100
AcDbLine
10
-1.935238
20
19.363527
30
0.0
11
-2.444186
21
19.014390
31
0.0
0
LINE
8
Default
62
1
5
176
100
AcDbEntity
100
AcDbLine
10
-2.444186
20
19.014390
30
0.0
11
-2.688582
21
18.819679
31
0.0
0
LINE
8
Default
62
1
5
177
100
AcDbEntity
100
AcDbLine
10
-2.688582
20
18.819679
30
0.0
11
-2.925605
21
18.611540
31
0.0
0
LINE
8
Default
62
1
5
178
100
AcDbEntity
100
AcDbLine
10
-6.737109
20
12.009823
30
0.0
11
-6.798851
21
11.700485
31
0.0
0
LINE
8
Default
62
1
5
179
100
AcDbEntity
100
AcDbLine
10
-6.798851
20
11.700485
30
0.0
11
-6.845277
21
11.391476
31
0.0
0
LINE
8
Default
62
1
5
17a
100
AcDbEntity
100
AcDbLine
10
-6.845277
20
11.391476
30
0.0
11
-6.893165
21
10.776146
31
0.0
0
LINE
8
Default
62
1
5
17b
100
AcDbEntity
100
AcDbLine
10
-6.893165
20
10.776146
30
0.0
11
-6.882737
21
10.167239
31
0.0
0
LINE
8
Default
62
1
5
17c
100
AcDbEntity
100
AcDbLine
10
-6.882737
20
10.167239
30
0.0
11
-6.815962
21
9.568160
31
0.0
0
LINE
8
Default
62
1
5
17d
100
AcDbEntity
100
AcDbLine
10
-6.815962
20
9.568160
30
0.0
11
-6.694804
21
8.982315
31
0.0
0
LINE
8
Default
62
1
5
17e
100
AcDbEntity
100
AcDbLine
10
-6.694804
20
8.982315
30
0.0
11
-6.521230
21
8.413110
31
0.0
0
LINE
8
Default
62
1
5
17f
100
AcDbEntity
100
AcDbLine
10
-6.521230
20
8.413110
30
0.0
11
-6.297206
21
7.863950
31
0.0
0
LINE
8
Default
62
1
5
180
100
AcDbEntity
100
AcDbLine
10
-6.297206
20
7.863950
30
0.0
11
-6.024699
21
7.338240
31
0.0
0
LINE
8
Default
62
1
5
181
100
AcDbEntity
100
AcDbLine
10
-6.024699
20
7.338240
30
0.0
11
-5.705675
21
6.839388
31
0.0
0
LINE
8
Default
62
1
5
182
100
AcDbEntity
100
AcDbLine
10
-5.705675
20
6.839388
30
0.0
11
-5.342100
21
6.370798
31
0.0
0
LINE
8
Default
62
1
5
183
100
AcDbEntity
100
AcDbLine
10
-5.342100
20
6.370798
30
0.0
11
-4.935941
21
5.935876
31
0.0
0
LINE
8
Default
62
1
5
184
100
AcDbEntity
100
AcDbLine
10
-4.935941
20
5.935876
30
0.0
11
-4.489163
21
5.538027
31
0.0
0
LINE
8
Default
62
1
5
185
100
AcDbEntity
100
AcDbLine
10
-4.489163
20
5.538027
30
0.0
11
-4.003734
21
5.180658
31
0.0
0
LINE
8
Default
62
1
5
186
100
AcDbEntity
100
AcDbLine
10
-4.003734
20
5.180658
30
0.0
11
-3.481618
21
4.867174
31
0.0
0
LINE
8
Default
62
1
5
187
100
AcDbEntity
100
AcDbLine
10
-3.481618
20
4.867174
30
0.0
11
-2.924783
21
4.600981
31
0.0
0
LINE
8
Default
62
1
5
188
100
AcDbEntity
100
AcDbLine
10
-2.924783
20
4.600981
30
0.0
11
-2.633961
21
4.486683
31
0.0
0
LINE
8
Default
62
1
5
189
100
AcDbEntity
100
AcDbLine
10
-2.633961
20
4.486683
30
0.0
11
-2.335195
21
4.385484
31
0.0
0
LINE
8
Default
62
1
5
18a
100
AcDbEntity
100
AcDbLine
10
5.287811
20
4.385484
30
0.0
11
5.586576
21
4.486683
31
0.0
0
LINE
8
Default
62
1
5
18b
100
AcDbEntity
100
AcDbLine
10
5.586576
20
4.486683
30
0.0
11
5.877399
21
4.600981
31
0.0
0
LINE
8
Default
62
1
5
18c
100
AcDbEntity
100
AcDbLine
10
5.877399
20
4.600981
30
0.0
11
6.434234
21
4.867174
31
0.0
0
LINE
8
Default
62
1
5
18d
100
AcDbEntity
100
AcDbLine
10
6.434234
20
4.867174
30
0.0
11
6.956349
21
5.180658
31
0.0
0
LINE
8
Default
62
1
5
18e
100
AcDbEntity
100
AcDbLine
10
6.956349
20
5.180658
30
0.0
11
7.441779
21
5.538027
31
0.0
0
LINE
8
Default
62
1
5
18f
100
AcDbEntity
100
AcDbLine
10
7.441779
20
5.538027
30
0.0
11
7.888557
21
5.935876
31
0.0
0
LINE
8
Default
62
1
5
190
100
AcDbEntity
100
AcDbLine
10
7.888557
20
5.935876
30
0.0
11
8.294716
21
6.370798
31
0.0
0
LINE
8
Default
62
1
5
191
100
AcDbEntity
100
AcDbLine
10
8.294716
20
6.370798
30
0.0
11
8.658291
21
6.839388
31
0.0
0
LINE
8
Default
62
1
5
192
100
AcDbEntity
100
AcDbLine
10
8.658291
20
6.839388
30
0.0
11
8.977315
21
7.338240
31
0.0
0
LINE
8
Default
62
1
5
193
100
AcDbEntity
100
AcDbLine
10
8.977315
20
7.338240
30
0.0
11
9.249822
21
7.863950
31
0.0
0
LINE
8
Default
62
1
5
194
100
AcDbEntity
100
AcDbLine
10
9.249822
20
7.863950
30
0.0
11
9.473845
21
8.413110
31
0.0
0
LINE
8
Default
62
1
5
195
100
AcDbEntity
100
AcDbLine
10
9.473845
20
8.413110
30
0.0
11
9.647419
21
8.982315
31
0.0
0
LINE
8
Default
62
1
5
196
100
AcDbEntity
100
AcDbLine
10
9.647419
20
8.982315
30
0.0
11
9.768577
21
9.568160
31
0.0
0
LINE
8
Default
62
1
5
197
100
AcDbEntity
100
AcDbLine
10
9.768577
20
9.568160
30
0.0
11
9.835353
21
10.167239
31
0.0
0
LINE
8
Default
62
1
5
198
100
AcDbEntity
100
AcDbLine
10
9.835353
20
10.167239
30
0.0
11
9.845780
21
10.776146
31
0.0
0
LINE
8
Default
62
1
5
199
100
AcDbEntity
100
AcDbLine
10
9.845780
20
10.776146
30
0.0
11
9.797893
21
11.391476
31
0.0
0
LINE
8
Default
62
1
5
19a
100
AcDbEntity
100
AcDbLine
10
9.797893
20
11.391476
30
0.0
11
9.751467
21
11.700485
31
0.0
0
LINE
8
Default
62
1
5
19b
100
AcDbEntity
100
AcDbLine
10
9.751467
20
11.700485
30
0.0
11
9.689724
21
12.009823
31
0.0
0
LINE
8
Default
62
1
5
19c
100
AcDbEntity
100
AcDbLine
10
-6.737109
20
12.009823
30
0.0
11
-2.925605
21
18.611540
31
0.0
0
LINE
8
Default
62
1
5
19d
100
AcDbEntity
100
AcDbLine
10
5.287811
20
4.385484
30
0.0
11
-2.335195
21
4.385484
31
0.0
0
LINE
8
Default
62
1
5
19e
100
AcDbEntity
100
AcDbLine
10
8.261494
20
14.483590
30
0.0
11
9.689724
21
12.009823
31
0.0
0
LINE
8
Default
62
5
5
19f
100
AcDbEntity
100
AcDbLine
10
0.337529
20
11.668949
30
0.0
11
0.328166
21
11.703890
31
0.0
0
LINE
8
Default
62
5
5
1a0
100
AcDbEntity
100
AcDbLine
10
0.328166
20
11.703890
30
0.0
11
0.302588
21
11.729469
31
0.0
0
LINE
8
Default
62
5
5
1a1
100
AcDbEntity
100
AcDbLine
10
0.302588
20
11.729469
30
0.0
11
0.267647
21
11.738831
31
0.0
0
LINE
8
Default
62
5
5
1a2
100
AcDbEntity
100
AcDbLine
10
0.267647
20
11.738831
30
0.0
11
0.232706
21
11.729469
31
0.0
0
LINE
8
Default
62
5
5
1a3
100
AcDbEntity
100
AcDbLine
10
0.232706
20
11.729469
30
0.0
11
0.207127
21
11.703890
31
0.0
0
LINE
8
Default
62
5
5
1a4
100
AcDbEntity
100
AcDbLine
10
0.207127
20
11.703890
30
0.0
11
0.197765
21
11.668949
31
0.0
0
LINE
8
Default
62
5
5
1a5
100
AcDbEntity
100
AcDbLine
10
0.197765
20
11.668949
30
0.0
11
0.207127
21
11.634008
31
0.0
0
LINE
8
Default
62
5
5
1a6
100
AcDbEntity
100
AcDbLine
10
0.207127
20
11.634008
30
0.0
11
0.232706
21
11.608430
31
0.0
0
LINE
8
Default
62
5
5
1a7
100
AcDbEntity
100
AcDbLine
10
0.232706
20
11.608430
30
0.0
11
0.267647
21
11.599067
31
0.0
0
LINE
8
Default
62
5
5
1a8
100
AcDbEntity
100
AcDbLine
10
0.267647
20
11.599067
30
0.0
11
0.302588
21
11.608430
31
0.0
0
LINE
8
Default
62
5
5
1a9
100
AcDbEntity
100
AcDbLine
10
0.302588
20
11.608430
30
0.0
11
0.328166
21
11.634008
31
0.0
0
LINE
8
Default
62
5
5
1aa
100
AcDbEntity
100
AcDbLine
10
0.328166
20
11.634008
30
0.0
11
0.337529
21
11.668949
31
0.0
0
LINE
8
Default
62
5
5
1ab
100
AcDbEntity
100
AcDbLine
10
0.337529
20
11.668949
30
0.0
11
0.337529
21
11.668949
31
0.0
0
LINE
8
Default
62
5
5
1ac
100
AcDbEntity
100
AcDbLine
10
0.928079
20
12.691814
30
0.0
11
0.918777
21
12.726830
31
0.0
0
LINE
8
Default
62
5
5
1ad
100
AcDbEntity
100
AcDbLine
10
0.918777
20
12.726830
30
0.0
11
0.893190
21
12.752482
31
0.0
0
LINE
8
Default
62
5
5
1ae
100
AcDbEntity
100
AcDbLine
10
0.893190
20
12.752482
30
0.0
11
0.858198
21
12.761874
31
0.0
0
LINE
8
Default
62
5
5
1af
100
AcDbEntity
100
AcDbLine
10
0.858198
20
12.761874
30
0.0
11
0.823205
21
12.752482
31
0.0
0
LINE
8
Default
62
5
5
1b0
100
AcDbEntity
100
AcDbLine
10
0.823205
20
12.752482
30
0.0
11
0.797619
21
12.726830
31
0.0
0
LINE
8
Default
62
5
5
1b1
100
AcDbEntity
100
AcDbLine
10
0.797619
20
12.726830
30
0.0
11
0.788316
21
12.691814
31
0.0
0
LINE
8
Default
62
5
5
1b2
100
AcDbEntity
100
AcDbLine
10
0.788316
20
12.691814
30
0.0
11
0.797619
21
12.656797
31
0.0
0
LINE
8
Default
62
5
5
1b3
100
AcDbEntity
100
AcDbLine
10
0.797619
20
12.656797
30
0.0
11
0.823205
21
12.631146
31
0.0
0
LINE
8
Default
62
5
5
1b4
100
AcDbEntity
100
AcDbLine
10
0.823205
20
12.631146
30
0.0
11
0.858198
21
12.621753
31
0.0
0
LINE
8
Default
62
5
5
1b5
100
AcDbEntity
100
AcDbLine
10
0.858198
20
12.621753
30
0.0
11
0.893190
21
12.631146
31
0.0
0
LINE
8
Default
62
5
5
1b6
100
AcDbEntity
100
AcDbLine
10
0.893190
20
12.631146
30
0.0
11
0.918777
21
12.656797
31
0.0
0
LINE
8
Default
62
5
5
1b7
100
AcDbEntity
100
AcDbLine
10
0.918777
20
12.656797
30
0.0
11
0.928079
21
12.691814
31
0.0
0
LINE
8
Default
62
5
5
1b8
100
AcDbEntity
100
AcDbLine
10
0.928079
20
12.691814
30
0.0
11
0.928079
21
12.691814
31
0.0
0
LINE
8
Default
62
5
5
1b9
100
AcDbEntity
100
AcDbLine
10
-2.179127
20
14.713064
30
0.0
11
-2.188489
21
14.748005
31
0.0
0
LINE
8
Default
62
5
5
1ba
100
AcDbEntity
100
AcDbLine
10
-2.188489
20
14.748005
30
0.0
11
-2.214068
21
14.773583
31
0.0
0
LINE
8
Default
62
5
5
1bb
100
AcDbEntity
100
AcDbLine
10
-2.214068
20
14.773583
30
0.0
11
-2.249009
21
14.782946
31
0.0
0
LINE
8
Default
62
5
5
1bc
100
AcDbEntity
100
AcDbLine
10
-2.249009
20
14.782946
30
0.0
11
-2.283950
21
14.773583
31
0.0
0
LINE
8
Default
62
5
5
1bd
100
AcDbEntity
100
AcDbLine
10
-2.283950
20
14.773583
30
0.0
11
-2.309528
21
14.748005
31
0.0
0
LINE
8
Default
62
5
5
1be
100
AcDbEntity
100
AcDbLine
10
-2.309528
20
14.748005
30
0.0
11
-2.318891
21
14.713064
31
0.0
0
LINE
8
Default
62
5
5
1bf
100
AcDbEntity
100
AcDbLine
10
-2.318891
20
14.713064
30
0.0
11
-2.309528
21
14.678123
31
0.0
0
LINE
8
Default
62
5
5
1c0
100
AcDbEntity
100
AcDbLine
10
-2.309528
20
14.678123
30
0.0
11
-2.283950
21
14.652544
31
0.0
0
LINE
8
Default
62
5
5
1c1
100
AcDbEntity
100
AcDbLine
10
-2.283950
20
14.652544
30
0.0
11
-2.249009
21
14.643182
31
0.0
0
LINE
8
Default
62
5
5
1c2
100
AcDbEntity
100
AcDbLine
10
-2.249009
20
14.643182
30
0.0
11
-2.214068
21
14.652544
31
0.0
0
LINE
8
Default
62
5
5
1c3
100
AcDbEntity
100
AcDbLine
10
-2.214068
20
14.652544
30
0.0
11
-2.188489
21
14.678123
31
0.0
0
LINE
8
Default
62
5
5
1c4
100
AcDbEntity
100
AcDbLine
10
-2.188489
20
14.678123
30
0.0
11
-2.179127
21
14.713064
31
0.0
0
LINE
8
Default
62
5
5
1c5
100
AcDbEntity
100
AcDbLine
10
-2.179127
20
14.713064
30
0.0
11
-2.179127
21
14.713064
31
0.0
0
LINE
8
Default
62
5
5
1c6
100
AcDbEntity
100
AcDbLine
10
-2.878930
20
13.349244
30
0.0
11
-2.900028
21
13.427984
31
0.0
0
LINE
8
Default
62
5
5
1c7
100
AcDbEntity
100
AcDbLine
10
-2.900028
20
13.427984
30
0.0
11
-2.957670
21
13.485626
31
0.0
0
LINE
8
Default
62
5
5
1c8
100
AcDbEntity
100
AcDbLine
10
-2.957670
20
13.485626
30
0.0
11
-3.036410
21
13.506724
31
0.0
0
LINE
8
Default
62
5
5
1c9
100
AcDbEntity
100
AcDbLine
10
-3.036410
20
13.506724
30
0.0
11
-3.115150
21
13.485626
31
0.0
0
LINE
8
Default
62
5
5
1ca
100
AcDbEntity
100
AcDbLine
10
-3.115150
20
13.485626
30
0.0
11
-3.172792
21
13.427984
31
0.0
0
LINE
8
Default
62
5
5
1cb
100
AcDbEntity
100
AcDbLine
10
-3.172792
20
13.427984
30
0.0
11
-3.193891
21
13.349244
31
0.0
0
LINE
8
Default
62
5
5
1cc
100
AcDbEntity
100
AcDbLine
10
-3.193891
20
13.349244
30
0.0
11
-3.172792
21
13.270504
31
0.0
0
LINE
8
Default
62
5
5
1cd
100
AcDbEntity
100
AcDbLine
10
-3.172792
20
13.270504
30
0.0
11
-3.115150
21
13.212862
31
0.0
0
LINE
8
Default
62
5
5
1ce
100
AcDbEntity
100
AcDbLine
10
-3.115150
20
13.212862
30
0.0
11
-3.036410
21
13.191763
31
0.0
0
LINE
8
Default
62
5
5
1cf
100
AcDbEntity
100
AcDbLine
10
-3.036410
20
13.191763
30
0.0
11
-2.957670
21
13.212862
31
0.0
0
LINE
8
Default
62
5
5
1d0
100
AcDbEntity
100
AcDbLine
10
-2.957670
20
13.212862
30
0.0
11
-2.900028
21
13.270504
31
0.0
0
LINE
8
Default
62
5
5
1d1
100
AcDbEntity
100
AcDbLine
10
-2.900028
20
13.270504
30
0.0
11
-2.878930
21
13.349244
31
0.0
0
LINE
8
Default
62
5
5
1d2
100
AcDbEntity
100
AcDbLine
10
-2.878930
20
13.349244
30
0.0
11
-2.878930
21
13.349244
31
0.0
0
LINE
8
Default
62
5
5
1d3
100
AcDbEntity
100
AcDbLine
10
-0.474352
20
13.728811
30
0.0
11
-0.483715
21
13.763752
31
0.0
0
LINE
8
Default
62
5
5
1d4
100
AcDbEntity
100
AcDbLine
10
-0.483715
20
13.763752
30
0.0
11
-0.509293
21
13.789331
31
0.0
0
LINE
8
Default
62
5
5
1d5
100
AcDbEntity
100
AcDbLine
10
-0.509293
20
13.789331
30
0.0
11
-0.544234
21
13.798693
31
0.0
0
LINE
8
Default
62
5
5
1d6
100
AcDbEntity
100
AcDbLine
10
-0.544234
20
13.798693
30
0.0
11
-0.579175
21
13.789331
31
0.0
0
LINE
8
Default
62
5
5
1d7
100
AcDbEntity
100
AcDbLine
10
-0.579175
20
13.789331
30
0.0
11
-0.604754
21
13.763752
31
0.0
0
LINE
8
Default
62
5
5
1d8
100
AcDbEntity
100
AcDbLine
10
-0.604754
20
13.763752
30
0.0
11
-0.614116
21
13.728811
31
0.0
0
LINE
8
Default
62
5
5
1d9
100
AcDbEntity
100
AcDbLine
10
-0.614116
20
13.728811
30
0.0
11
-0.593648
21
13.679397
31
0.0
0
LINE
8
Default
62
5
5
1da
100
AcDbEntity
100
AcDbLine
10
-0.593648
20
13.679397
30
0.0
11
-0.544234
21
13.658930
31
0.0
0
LINE
8
Default
62
5
5
1db
100
AcDbEntity
100
AcDbLine
10
-0.544234
20
13.658930
30
0.0
11
-0.494820
21
13.679397
31
0.0
0
LINE
8
Default
62
5
5
1dc
100
AcDbEntity
100
AcDbLine
10
-0.494820
20
13.679397
30
0.0
11
-0.474352
21
13.728811
31
0.0
0
LINE
8
Default
62
5
5
1dd
100
AcDbEntity
100
AcDbLine
10
-0.474352
20
13.728811
30
0.0
11
-0.474352
21
13.728811
31
0.0
0
LINE
8
Default
62
5
5
1de
100
AcDbEntity
100
AcDbLine
10
-1.261754
20
12.364991
30
0.0
11
-1.271107
21
12.399944
31
0.0
0
LINE
8
Default
62
5
5
1df
100
AcDbEntity
100
AcDbLine
10
-1.271107
20
12.399944
30
0.0
11
-1.296687
21
12.425534
31
0.0
0
LINE
8
Default
62
5
5
1e0
100
AcDbEntity
100
AcDbLine
10
-1.296687
20
12.425534
30
0.0
11
-1.331636
21
12.434901
31
0.0
0
LINE
8
Default
62
5
5
1e1
100
AcDbEntity
100
AcDbLine
10
-1.331636
20
12.434901
30
0.0
11
-1.366585
21
12.425534
31
0.0
0
LINE
8
Default
62
5
5
1e2
100
AcDbEntity
100
AcDbLine
10
-1.366585
20
12.425534
30
0.0
11
-1.392165
21
12.399944
31
0.0
0
LINE
8
Default
62
5
5
1e3
100
AcDbEntity
100
AcDbLine
10
-1.392165
20
12.399944
30
0.0
11
-1.401518
21
12.364991
31
0.0
0
LINE
8
Default
62
5
5
1e4
100
AcDbEntity
100
AcDbLine
10
-1.401518
20
12.364991
30
0.0
11
-1.392165
21
12.330039
31
0.0
0
LINE
8
Default
62
5
5
1e5
100
AcDbEntity
100
AcDbLine
10
-1.392165
20
12.330039
30
0.0
11
-1.366585
21
12.304449
31
0.0
0
LINE
8
Default
62
5
5
1e6
100
AcDbEntity
100
AcDbLine
10
-1.366585
20
12.304449
30
0.0
11
-1.331636
21
12.295082
31
0.0
0
LINE
8
Default
62
5
5
1e7
100
AcDbEntity
100
AcDbLine
10
-1.331636
20
12.295082
30
0.0
11
-1.296687
21
12.304449
31
0.0
0
LINE
8
Default
62
5
5
1e8
100
AcDbEntity
100
AcDbLine
10
-1.296687
20
12.304449
30
0.0
11
-1.271107
21
12.330039
31
0.0
0
LINE
8
Default
62
5
5
1e9
100
AcDbEntity
100
AcDbLine
10
-1.271107
20
12.330039
30
0.0
11
-1.261754
21
12.364991
31
0.0
0
LINE
8
Default
62
5
5
1ea
100
AcDbEntity
100
AcDbLine
10
-1.261754
20
12.364991
30
0.0
11
-1.261754
21
12.364991
31
0.0
0
LINE
8
Default
62
5
5
1eb
100
AcDbEntity
100
AcDbLine
10
-1.175672
20
14.249303
30
0.0
11
-1.584818
21
14.485523
31
0.0
0
LINE
8
Default
62
5
5
1ec
100
AcDbEntity
100
AcDbLine
10
-1.584818
20
14.485523
30
0.0
11
-1.719857
21
14.251628
31
0.0
0
LINE
8
Default
62
5
5
1ed
100
AcDbEntity
100
AcDbLine
10
-1.719857
20
14.251628
30
0.0
11
-1.310711
21
14.015407
31
0.0
0
LINE
8
Default
62
5
5
1ee
100
AcDbEntity
100
AcDbLine
10
-3.289592
20
15.469775
30
0.0
11
-3.424632
21
15.235879
31
0.0
0
LINE
8
Default
62
5
5
1ef
100
AcDbEntity
100
AcDbLine
10
-3.424632
20
15.235879
30
0.0
11
-2.913199
21
14.940604
31
0.0
0
LINE
8
Default
62
5
5
1f0
100
AcDbEntity
100
AcDbLine
10
-2.913199
20
14.940604
30
0.0
11
-2.778160
21
15.174499
31
0.0
0
LINE
8
Default
62
5
5
1f1
100
AcDbEntity
100
AcDbLine
10
-2.778160
20
15.174499
30
0.0
11
-3.289592
21
15.469775
31
0.0
0
LINE
8
Default
62
5
5
1f2
100
AcDbEntity
100
AcDbLine
10
-6.049933
20
12.421463
30
0.0
11
-5.753477
21
12.934940
31
0.0
0
LINE
8
Default
62
5
5
1f3
100
AcDbEntity
100
AcDbLine
10
-5.753477
20
12.934940
30
0.0
11
-5.989349
21
13.071121
31
0.0
0
LINE
8
Default
62
5
5
1f4
100
AcDbEntity
100
AcDbLine
10
-5.989349
20
13.071121
30
0.0
11
-6.285806
21
12.557644
31
0.0
0
LINE
8
Default
62
5
5
1f5
100
AcDbEntity
100
AcDbLine
10
-6.285806
20
12.557644
30
0.0
11
-6.049933
21
12.421463
31
0.0
0
LINE
8
Default
62
5
5
1f6
100
AcDbEntity
100
AcDbLine
10
-4.642449
20
14.859297
30
0.0
11
-4.345993
21
15.372775
31
0.0
0
LINE
8
Default
62
5
5
1f7
100
AcDbEntity
100
AcDbLine
10
-4.345993
20
15.372775
30
0.0
11
-4.581865
21
15.508956
31
0.0
0
LINE
8
Default
62
5
5
1f8
100
AcDbEntity
100
AcDbLine
10
-4.581865
20
15.508956
30
0.0
11
-4.878322
21
14.995478
31
0.0
0
LINE
8
Default
62
5
5
1f9
100
AcDbEntity
100
AcDbLine
10
-4.878322
20
14.995478
30
0.0
11
-4.642449
21
14.859297
31
0.0
0
LINE
8
Default
62
5
5
1fa
100
AcDbEntity
100
AcDbLine
10
-3.234965
20
17.297130
30
0.0
11
-2.938509
21
17.810608
31
0.0
0
LINE
8
Default
62
5
5
1fb
100
AcDbEntity
100
AcDbLine
10
-2.938509
20
17.810608
30
0.0
11
-3.174381
21
17.946789
31
0.0
0
LINE
8
Default
62
5
5
1fc
100
AcDbEntity
100
AcDbLine
10
-3.174381
20
17.946789
30
0.0
11
-3.470838
21
17.433311
31
0.0
0
LINE
8
Default
62
5
5
1fd
100
AcDbEntity
100
AcDbLine
10
-3.470838
20
17.433311
30
0.0
11
-3.234965
21
17.297130
31
0.0
0
LINE
8
Default
62
5
5
1fe
100
AcDbEntity
100
AcDbLine
10
5.849786
20
17.786741
30
0.0
11
6.146242
21
17.273264
31
0.0
0
LINE
8
Default
62
5
5
1ff
100
AcDbEntity
100
AcDbLine
10
6.146242
20
17.273264
30
0.0
11
6.382116
21
17.409445
31
0.0
0
LINE
8
Default
62
5
5
200
100
AcDbEntity
100
AcDbLine
10
6.382116
20
17.409445
30
0.0
11
6.085659
21
17.922923
31
0.0
0
LINE
8
Default
62
5
5
201
100
AcDbEntity
100
AcDbLine
10
6.085659
20
17.922923
30
0.0
11
5.849786
21
17.786741
31
0.0
0
LINE
8
Default
62
5
5
202
100
AcDbEntity
100
AcDbLine
10
7.257270
20
15.348908
30
0.0
11
7.553727
21
14.835429
31
0.0
0
LINE
8
Default
62
5
5
203
100
AcDbEntity
100
AcDbLine
10
7.553727
20
14.835429
30
0.0
11
7.789599
21
14.971610
31
0.0
0
LINE
8
Default
62
5
5
204
100
AcDbEntity
100
AcDbLine
10
7.789599
20
14.971610
30
0.0
11
7.493142
21
15.485089
31
0.0
0
LINE
8
Default
62
5
5
205
100
AcDbEntity
100
AcDbLine
10
7.493142
20
15.485089
30
0.0
11
7.257270
21
15.348908
31
0.0
0
LINE
8
Default
62
5
5
206
100
AcDbEntity
100
AcDbLine
10
8.664753
20
12.911074
30
0.0
11
8.961211
21
12.397596
31
0.0
0
LINE
8
Default
62
5
5
207
100
AcDbEntity
100
AcDbLine
10
8.961211
20
12.397596
30
0.0
11
9.197083
21
12.533777
31
0.0
0
LINE
8
Default
62
5
5
208
100
AcDbEntity
100
AcDbLine
10
9.197083
20
12.533777
30
0.0
11
8.900627
21
13.047255
31
0.0
0
LINE
8
Default
62
5
5
209
100
AcDbEntity
100
AcDbLine
10
8.900627
20
13.047255
30
0.0
11
8.664753
21
12.911074
31
0.0
0
LINE
8
Default
62
5
5
20a
100
AcDbEntity
100
AcDbLine
10
4.546393
20
4.798642
30
0.0
11
3.953481
21
4.798642
31
0.0
0
LINE
8
Default
62
5
5
20b
100
AcDbEntity
100
AcDbLine
10
3.953481
20
4.798642
30
0.0
11
3.953481
21
4.526280
31
0.0
0
LINE
8
Default
62
5
5
20c
100
AcDbEntity
100
AcDbLine
10
3.953481
20
4.526280
30
0.0
11
4.546393
21
4.526280
31
0.0
0
LINE
8
Default
62
5
5
20d
100
AcDbEntity
100
AcDbLine
10
4.546393
20
4.526280
30
0.0
11
4.546393
21
4.798642
31
0.0
0
LINE
8
Default
62
5
5
20e
100
AcDbEntity
100
AcDbLine
10
1.731426
20
4.798642
30
0.0
11
1.138513
21
4.798642
31
0.0
0
LINE
8
Default
62
5
5
20f
100
AcDbEntity
100
AcDbLine
10
1.138513
20
4.798642
30
0.0
11
1.138513
21
4.526280
31
0.0
0
LINE
8
Default
62
5
5
210
100
AcDbEntity
100
AcDbLine
10
1.138513
20
4.526280
30
0.0
11
1.731426
21
4.526280
31
0.0
0
LINE
8
Default
62
5
5
211
100
AcDbEntity
100
AcDbLine
10
1.731426
20
4.526280
30
0.0
11
1.731426
21
4.798642
31
0.0
0
LINE
8
Default
62
5
5
212
100
AcDbEntity
100
AcDbLine
10
-1.083542
20
4.798642
30
0.0
11
-1.676455
21
4.798642
31
0.0
0
LINE
8
Default
62
5
5
213
100
AcDbEntity
100
AcDbLine
10
-1.676455
20
4.798642
30
0.0
11
-1.676455
21
4.526280
31
0.0
0
LINE
8
Default
62
5
5
214
100
AcDbEntity
100
AcDbLine
10
-1.676455
20
4.526280
30
0.0
11
-1.083542
21
4.526280
31
0.0
0
LINE
8
Default
62
5
5
215
100
AcDbEntity
100
AcDbLine
10
-1.083542
20
4.526280
30
0.0
11
-1.083542
21
4.798642
31
0.0
0
LINE
8
Default
62
5
5
216
100
AcDbEntity
100
AcDbLine
10
-1.310711
20
14.015407
30
0.0
11
-1.175672
21
14.249303
31
0.0
0
LINE
8
Default
62
5
5
217
100
AcDbEntity
100
AcDbLine
10
1.580806
20
18.541601
30
0.0
11
1.518553
21
18.580275
31
0.0
0
LINE
8
Default
62
5
5
218
100
AcDbEntity
100
AcDbLine
10
1.518553
20
18.580275
30
0.0
11
1.448749
21
18.593166
31
0.0
0
LINE
8
Default
62
5
5
219
100
AcDbEntity
100
AcDbLine
10
1.448749
20
18.593166
30
0.0
11
1.378945
21
18.580275
31
0.0
0
LINE
8
Default
62
5
5
21a
100
AcDbEntity
100
AcDbLine
10
1.378945
20
18.580275
30
0.0
11
1.316692
21
18.541601
31
0.0
0
LINE
8
Default
62
5
5
21b
100
AcDbEntity
100
AcDbLine
10
1.202346
20
18.343550
30
0.0
11
1.199981
21
18.270300
31
0.0
0
LINE
8
Default
62
5
5
21c
100
AcDbEntity
100
AcDbLine
10
1.199981
20
18.270300
30
0.0
11
1.223719
21
18.203403
31
0.0
0
LINE
8
Default
62
5
5
21d
100
AcDbEntity
100
AcDbLine
10
1.223719
20
18.203403
30
0.0
11
1.269785
21
18.149397
31
0.0
0
LINE
8
Default
62
5
5
21e
100
AcDbEntity
100
AcDbLine
10
1.269785
20
18.149397
30
0.0
11
1.334404
21
18.114820
31
0.0
0
LINE
8
Default
62
5
5
21f
100
AcDbEntity
100
AcDbLine
10
1.202346
20
18.343550
30
0.0
11
1.316692
21
18.541601
31
0.0
0
LINE
8
Default
62
5
5
220
100
AcDbEntity
100
AcDbLine
10
1.563094
20
18.114820
30
0.0
11
1.334404
21
18.114820
31
0.0
0
LINE
8
Default
62
5
5
221
100
AcDbEntity
100
AcDbLine
10
1.580806
20
18.541601
30
0.0
11
1.695152
21
18.343550
31
0.0
0
LINE
8
Default
62
5
5
222
100
AcDbEntity
100
AcDbLine
10
1.563094
20
18.114820
30
0.0
11
1.627713
21
18.149397
31
0.0
0
LINE
8
Default
62
5
5
223
100
AcDbEntity
100
AcDbLine
10
1.627713
20
18.149397
30
0.0
11
1.673779
21
18.203403
31
0.0
0
LINE
8
Default
62
5
5
224
100
AcDbEntity
100
AcDbLine
10
1.673779
20
18.203403
30
0.0
11
1.697517
21
18.270300
31
0.0
0
LINE
8
Default
62
5
5
225
100
AcDbEntity
100
AcDbLine
10
1.697517
20
18.270300
30
0.0
11
1.695152
21
18.343550
31
0.0
0
LINE
8
Default
62
5
5
226
100
AcDbEntity
100
AcDbLine
10
-4.569172
20
8.346987
30
0.0
11
-4.571537
21
8.273737
31
0.0
0
LINE
8
Default
62
5
5
227
100
AcDbEntity
100
AcDbLine
10
-4.571537
20
8.273737
30
0.0
11
-4.547799
21
8.206840
31
0.0
0
LINE
8
Default
62
5
5
228
100
AcDbEntity
100
AcDbLine
10
-4.547799
20
8.206840
30
0.0
11
-4.501733
21
8.152833
31
0.0
0
LINE
8
Default
62
5
5
229
100
AcDbEntity
100
AcDbLine
10
-4.501733
20
8.152833
30
0.0
11
-4.437114
21
8.118257
31
0.0
0
LINE
8
Default
62
5
5
22a
100
AcDbEntity
100
AcDbLine
10
-4.208424
20
8.118257
30
0.0
11
-4.143805
21
8.152833
31
0.0
0
LINE
8
Default
62
5
5
22b
100
AcDbEntity
100
AcDbLine
10
-4.143805
20
8.152833
30
0.0
11
-4.097739
21
8.206840
31
0.0
0
LINE
8
Default
62
5
5
22c
100
AcDbEntity
100
AcDbLine
10
-4.097739
20
8.206840
30
0.0
11
-4.074001
21
8.273737
31
0.0
0
LINE
8
Default
62
5
5
22d
100
AcDbEntity
100
AcDbLine
10
-4.074001
20
8.273737
30
0.0
11
-4.076367
21
8.346987
31
0.0
0
LINE
8
Default
62
5
5
22e
100
AcDbEntity
100
AcDbLine
10
-4.208424
20
8.118257
30
0.0
11
-4.437114
21
8.118257
31
0.0
0
LINE
8
Default
62
5
5
22f
100
AcDbEntity
100
AcDbLine
10
-4.190712
20
8.545039
30
0.0
11
-4.076367
21
8.346987
31
0.0
0
LINE
8
Default
62
5
5
230
100
AcDbEntity
100
AcDbLine
10
-4.569172
20
8.346987
30
0.0
11
-4.454827
21
8.545039
31
0.0
0
LINE
8
Default
62
5
5
231
100
AcDbEntity
100
AcDbLine
10
-4.190712
20
8.545039
30
0.0
11
-4.252965
21
8.583713
31
0.0
0
LINE
8
Default
62
5
5
232
100
AcDbEntity
100
AcDbLine
10
-4.252965
20
8.583713
30
0.0
11
-4.322769
21
8.596604
31
0.0
0
LINE
8
Default
62
5
5
233
100
AcDbEntity
100
AcDbLine
10
-4.322769
20
8.596604
30
0.0
11
-4.392573
21
8.583713
31
0.0
0
LINE
8
Default
62
5
5
234
100
AcDbEntity
100
AcDbLine
10
-4.392573
20
8.583713
30
0.0
11
-4.454827
21
8.545039
31
0.0
0
LINE
8
Default
62
5
5
235
100
AcDbEntity
100
AcDbLine
10
7.334612
20
8.118257
30
0.0
11
7.399231
21
8.152833
31
0.0
0
LINE
8
Default
62
5
5
236
100
AcDbEntity
100
AcDbLine
10
7.399231
20
8.152833
30
0.0
11
7.445298
21
8.206840
31
0.0
0
LINE
8
Default
62
5
5
237
100
AcDbEntity
100
AcDbLine
10
7.445298
20
8.206840
30
0.0
11
7.469035
21
8.273737
31
0.0
0
LINE
8
Default
62
5
5
238
100
AcDbEntity
100
AcDbLine
10
7.469035
20
8.273737
30
0.0
11
7.466670
21
8.346987
31
0.0
0
LINE
8
Default
62
5
5
239
100
AcDbEntity
100
AcDbLine
10
7.352324
20
8.545039
30
0.0
11
7.290071
21
8.583713
31
0.0
0
LINE
8
Default
62
5
5
23a
100
AcDbEntity
100
AcDbLine
10
7.290071
20
8.583713
30
0.0
11
7.220267
21
8.596604
31
0.0
0
LINE
8
Default
62
5
5
23b
100
AcDbEntity
100
AcDbLine
10
7.220267
20
8.596604
30
0.0
11
7.150463
21
8.583713
31
0.0
0
LINE
8
Default
62
5
5
23c
100
AcDbEntity
100
AcDbLine
10
7.150463
20
8.583713
30
0.0
11
7.088210
21
8.545039
31
0.0
0
LINE
8
Default
62
5
5
23d
100
AcDbEntity
100
AcDbLine
10
7.352324
20
8.545039
30
0.0
11
7.466670
21
8.346987
31
0.0
0
LINE
8
Default
62
5
5
23e
100
AcDbEntity
100
AcDbLine
10
6.973864
20
8.346987
30
0.0
11
7.088210
21
8.545039
31
0.0
0
LINE
8
Default
62
5
5
23f
100
AcDbEntity
100
AcDbLine
10
7.334612
20
8.118257
30
0.0
11
7.105922
21
8.118257
31
0.0
0
LINE
8
Default
62
5
5
240
100
AcDbEntity
100
AcDbLine
10
6.973864
20
8.346987
30
0.0
11
6.971499
21
8.273737
31
0.0
0
LINE
8
Default
62
5
5
241
100
AcDbEntity
100
AcDbLine
10
6.971499
20
8.273737
30
0.0
11
6.995237
21
8.206840
31
0.0
0
LINE
8
Default
62
5
5
242
100
AcDbEntity
100
AcDbLine
10
6.995237
20
8.206840
30
0.0
11
7.041303
21
8.152833
31
0.0
0
LINE
8
Default
62
5
5
243
100
AcDbEntity
100
AcDbLine
10
7.041303
20
8.152833
30
0.0
11
7.105922
21
8.118257
31
0.0
0
LINE
8
Default
62
5
5
244
100
AcDbEntity
100
AcDbLine
10
1.940875
20
11.668949
30
0.0
11
1.923840
21
11.797354
31
0.0
0
LINE
8
Default
62
5
5
245
100
AcDbEntity
100
AcDbLine
10
1.923840
20
11.797354
30
0.0
11
1.874943
21
11.915012
31
0.0
0
LINE
8
Default
62
5
5
246
100
AcDbEntity
100
AcDbLine
10
1.874943
20
11.915012
30
0.0
11
1.797496
21
12.016188
31
0.0
0
LINE
8
Default
62
5
5
247
100
AcDbEntity
100
AcDbLine
10
1.797496
20
12.016188
30
0.0
11
1.694812
21
12.095143
31
0.0
0
LINE
8
Default
62
5
5
248
100
AcDbEntity
100
AcDbLine
10
1.694812
20
12.095143
30
0.0
11
1.575093
21
12.144592
31
0.0
0
LINE
8
Default
62
5
5
249
100
AcDbEntity
100
AcDbLine
10
1.575093
20
12.144592
30
0.0
11
1.448749
21
12.161075
31
0.0
0
LINE
8
Default
62
5
5
24a
100
AcDbEntity
100
AcDbLine
10
1.448749
20
12.161075
30
0.0
11
1.322405
21
12.144592
31
0.0
0
LINE
8
Default
62
5
5
24b
100
AcDbEntity
100
AcDbLine
10
1.322405
20
12.144592
30
0.0
11
1.202686
21
12.095143
31
0.0
0
LINE
8
Default
62
5
5
24c
100
AcDbEntity
100
AcDbLine
10
1.202686
20
12.095143
30
0.0
11
1.100002
21
12.016188
31
0.0
0
LINE
8
Default
62
5
5
24d
100
AcDbEntity
100
AcDbLine
10
1.100002
20
12.016188
30
0.0
11
1.022555
21
11.915012
31
0.0
0
LINE
8
Default
62
5
5
24e
100
AcDbEntity
100
AcDbLine
10
1.022555
20
11.915012
30
0.0
11
0.973658
21
11.797354
31
0.0
0
LINE
8
Default
62
5
5
24f
100
AcDbEntity
100
AcDbLine
10
0.973658
20
11.797354
30
0.0
11
0.956623
21
11.668949
31
0.0
0
LINE
8
Default
62
5
5
250
100
AcDbEntity
100
AcDbLine
10
0.956623
20
11.668949
30
0.0
11
0.973658
21
11.540545
31
0.0
0
LINE
8
Default
62
5
5
251
100
AcDbEntity
100
AcDbLine
10
0.973658
20
11.540545
30
0.0
11
1.022555
21
11.422886
31
0.0
0
LINE
8
Default
62
5
5
252
100
AcDbEntity
100
AcDbLine
10
1.022555
20
11.422886
30
0.0
11
1.100002
21
11.321711
31
0.0
0
LINE
8
Default
62
5
5
253
100
AcDbEntity
100
AcDbLine
10
1.100002
20
11.321711
30
0.0
11
1.202686
21
11.242755
31
0.0
0
LINE
8
Default
62
5
5
254
100
AcDbEntity
100
AcDbLine
10
1.202686
20
11.242755
30
0.0
11
1.322405
21
11.193306
31
0.0
0
LINE
8
Default
62
5
5
255
100
AcDbEntity
100
AcDbLine
10
1.322405
20
11.193306
30
0.0
11
1.448749
21
11.176823
31
0.0
0
LINE
8
Default
62
5
5
256
100
AcDbEntity
100
AcDbLine
10
1.448749
20
11.176823
30
0.0
11
1.575093
21
11.193306
31
0.0
0
LINE
8
Default
62
5
5
257
100
AcDbEntity
100
AcDbLine
10
1.575093
20
11.193306
30
0.0
11
1.694812
21
11.242755
31
0.0
0
LINE
8
Default
62
5
5
258
100
AcDbEntity
100
AcDbLine
10
1.694812
20
11.242755
30
0.0
11
1.797496
21
11.321711
31
0.0
0
LINE
8
Default
62
5
5
259
100
AcDbEntity
100
AcDbLine
10
1.797496
20
11.321711
30
0.0
11
1.874943
21
11.422886
31
0.0
0
LINE
8
Default
62
5
5
25a
100
AcDbEntity
100
AcDbLine
10
1.874943
20
11.422886
30
0.0
11
1.923840
21
11.540545
31
0.0
0
LINE
8
Default
62
5
5
25b
100
AcDbEntity
100
AcDbLine
10
1.923840
20
11.540545
30
0.0
11
1.940875
21
11.668949
31
0.0
0
LINE
8
Default
62
5
5
25c
100
AcDbEntity
100
AcDbLine
10
1.940875
20
11.668949
30
0.0
11
1.940875
21
11.668949
31
0.0
0
LINE
8
Default
62
5
5
25d
100
AcDbEntity
100
AcDbLine
10
2.109183
20
12.691814
30
0.0
11
2.099820
21
12.726755
31
0.0
0
LINE
8
Default
62
5
5
25e
100
AcDbEntity
100
AcDbLine
10
2.099820
20
12.726755
30
0.0
11
2.074242
21
12.752333
31
0.0
0
LINE
8
Default
62
5
5
25f
100
AcDbEntity
100
AcDbLine
10
2.074242
20
12.752333
30
0.0
11
2.039301
21
12.761696
31
0.0
0
LINE
8
Default
62
5
5
260
100
AcDbEntity
100
AcDbLine
10
2.039301
20
12.761696
30
0.0
11
2.004359
21
12.752333
31
0.0
0
LINE
8
Default
62
5
5
261
100
AcDbEntity
100
AcDbLine
10
2.004359
20
12.752333
30
0.0
11
1.978781
21
12.726755
31
0.0
0
LINE
8
Default
62
5
5
262
100
AcDbEntity
100
AcDbLine
10
1.978781
20
12.726755
30
0.0
11
1.969418
21
12.691814
31
0.0
0
LINE
8
Default
62
5
5
263
100
AcDbEntity
100
AcDbLine
10
1.969418
20
12.691814
30
0.0
11
1.978781
21
12.656873
31
0.0
0
LINE
8
Default
62
5
5
264
100
AcDbEntity
100
AcDbLine
10
1.978781
20
12.656873
30
0.0
11
2.004359
21
12.631294
31
0.0
0
LINE
8
Default
62
5
5
265
100
AcDbEntity
100
AcDbLine
10
2.004359
20
12.631294
30
0.0
11
2.039301
21
12.621931
31
0.0
0
LINE
8
Default
62
5
5
266
100
AcDbEntity
100
AcDbLine
10
2.039301
20
12.621931
30
0.0
11
2.074242
21
12.631294
31
0.0
0
LINE
8
Default
62
5
5
267
100
AcDbEntity
100
AcDbLine
10
2.074242
20
12.631294
30
0.0
11
2.099820
21
12.656873
31
0.0
0
LINE
8
Default
62
5
5
268
100
AcDbEntity
100
AcDbLine
10
2.099820
20
12.656873
30
0.0
11
2.109183
21
12.691814
31
0.0
0
LINE
8
Default
62
5
5
269
100
AcDbEntity
100
AcDbLine
10
2.109183
20
12.691814
30
0.0
11
2.109183
21
12.691814
31
0.0
0
LINE
8
Default
62
5
5
26a
100
AcDbEntity
100
AcDbLine
10
2.699734
20
11.668949
30
0.0
11
2.690371
21
11.703890
31
0.0
0
LINE
8
Default
62
5
5
26b
100
AcDbEntity
100
AcDbLine
10
2.690371
20
11.703890
30
0.0
11
2.664793
21
11.729469
31
0.0
0
LINE
8
Default
62
5
5
26c
100
AcDbEntity
100
AcDbLine
10
2.664793
20
11.729469
30
0.0
11
2.629852
21
11.738831
31
0.0
0
LINE
8
Default
62
5
5
26d
100
AcDbEntity
100
AcDbLine
10
2.629852
20
11.738831
30
0.0
11
2.594911
21
11.729469
31
0.0
0
LINE
8
Default
62
5
5
26e
100
AcDbEntity
100
AcDbLine
10
2.594911
20
11.729469
30
0.0
11
2.569332
21
11.703890
31
0.0
0
LINE
8
Default
62
5
5
26f
100
AcDbEntity
100
AcDbLine
10
2.569332
20
11.703890
30
0.0
11
2.559969
21
11.668949
31
0.0
0
LINE
8
Default
62
5
5
270
100
AcDbEntity
100
AcDbLine
10
2.559969
20
11.668949
30
0.0
11
2.569332
21
11.634008
31
0.0
0
LINE
8
Default
62
5
5
271
100
AcDbEntity
100
AcDbLine
10
2.569332
20
11.634008
30
0.0
11
2.594911
21
11.608429
31
0.0
0
LINE
8
Default
62
5
5
272
100
AcDbEntity
100
AcDbLine
10
2.594911
20
11.608429
30
0.0
11
2.629852
21
11.599067
31
0.0
0
LINE
8
Default
62
5
5
273
100
AcDbEntity
100
AcDbLine
10
2.629852
20
11.599067
30
0.0
11
2.664793
21
11.608429
31
0.0
0
LINE
8
Default
62
5
5
274
100
AcDbEntity
100
AcDbLine
10
2.664793
20
11.608429
30
0.0
11
2.690371
21
11.634008
31
0.0
0
LINE
8
Default
62
5
5
275
100
AcDbEntity
100
AcDbLine
10
2.690371
20
11.634008
30
0.0
11
2.699734
21
11.668949
31
0.0
0
LINE
8
Default
62
5
5
276
100
AcDbEntity
100
AcDbLine
10
2.699734
20
11.668949
30
0.0
11
2.699734
21
11.668949
31
0.0
0
LINE
8
Default
62
5
5
277
100
AcDbEntity
100
AcDbLine
10
6.003790
20
13.349244
30
0.0
11
5.994428
21
13.384185
31
0.0
0
LINE
8
Default
62
5
5
278
100
AcDbEntity
100
AcDbLine
10
5.994428
20
13.384185
30
0.0
11
5.968849
21
13.409763
31
0.0
0
LINE
8
Default
62
5
5
279
100
AcDbEntity
100
AcDbLine
10
5.968849
20
13.409763
30
0.0
11
5.933908
21
13.419126
31
0.0
0
LINE
8
Default
62
5
5
27a
100
AcDbEntity
100
AcDbLine
10
5.933908
20
13.419126
30
0.0
11
5.898967
21
13.409763
31
0.0
0
LINE
8
Default
62
5
5
27b
100
AcDbEntity
100
AcDbLine
10
5.898967
20
13.409763
30
0.0
11
5.873388
21
13.384185
31
0.0
0
LINE
8
Default
62
5
5
27c
100
AcDbEntity
100
AcDbLine
10
5.873388
20
13.384185
30
0.0
11
5.864026
21
13.349244
31
0.0
0
LINE
8
Default
62
5
5
27d
100
AcDbEntity
100
AcDbLine
10
5.864026
20
13.349244
30
0.0
11
5.873388
21
13.314303
31
0.0
0
LINE
8
Default
62
5
5
27e
100
AcDbEntity
100
AcDbLine
10
5.873388
20
13.314303
30
0.0
11
5.898967
21
13.288724
31
0.0
0
LINE
8
Default
62
5
5
27f
100
AcDbEntity
100
AcDbLine
10
5.898967
20
13.288724
30
0.0
11
5.933908
21
13.279361
31
0.0
0
LINE
8
Default
62
5
5
280
100
AcDbEntity
100
AcDbLine
10
5.933908
20
13.279361
30
0.0
11
5.968849
21
13.288724
31
0.0
0
LINE
8
Default
62
5
5
281
100
AcDbEntity
100
AcDbLine
10
5.968849
20
13.288724
30
0.0
11
5.994428
21
13.314303
31
0.0
0
LINE
8
Default
62
5
5
282
100
AcDbEntity
100
AcDbLine
10
5.994428
20
13.314303
30
0.0
11
6.003790
21
13.349244
31
0.0
0
LINE
8
Default
62
5
5
283
100
AcDbEntity
100
AcDbLine
10
6.003790
20
13.349244
30
0.0
11
6.003790
21
13.349244
31
0.0
0
LINE
8
Default
62
5
5
284
100
AcDbEntity
100
AcDbLine
10
5.303987
20
14.713064
30
0.0
11
5.282888
21
14.791804
31
0.0
0
LINE
8
Default
62
5
5
285
100
AcDbEntity
100
AcDbLine
10
5.282888
20
14.791804
30
0.0
11
5.225246
21
14.849446
31
0.0
0
LINE
8
Default
62
5
5
286
100
AcDbEntity
100
AcDbLine
10
5.225246
20
14.849446
30
0.0
11
5.146506
21
14.870544
31
0.0
0
LINE
8
Default
62
5
5
287
100
AcDbEntity
100
AcDbLine
10
5.146506
20
14.870544
30
0.0
11
5.067766
21
14.849446
31
0.0
0
LINE
8
Default
62
5
5
288
100
AcDbEntity
100
AcDbLine
10
5.067766
20
14.849446
30
0.0
11
5.010124
21
14.791804
31
0.0
0
LINE
8
Default
62
5
5
289
100
AcDbEntity
100
AcDbLine
10
5.010124
20
14.791804
30
0.0
11
4.989026
21
14.713064
31
0.0
0
LINE
8
Default
62
5
5
28a
100
AcDbEntity
100
AcDbLine
10
4.989026
20
14.713064
30
0.0
11
5.010124
21
14.634323
31
0.0
0
LINE
8
Default
62
5
5
28b
100
AcDbEntity
100
AcDbLine
10
5.010124
20
14.634323
30
0.0
11
5.067766
21
14.576682
31
0.0
0
LINE
8
Default
62
5
5
28c
100
AcDbEntity
100
AcDbLine
10
5.067766
20
14.576682
30
0.0
11
5.146506
21
14.555583
31
0.0
0
LINE
8
Default
62
5
5
28d
100
AcDbEntity
100
AcDbLine
10
5.146506
20
14.555583
30
0.0
11
5.225246
21
14.576682
31
0.0
0
LINE
8
Default
62
5
5
28e
100
AcDbEntity
100
AcDbLine
10
5.225246
20
14.576682
30
0.0
11
5.282888
21
14.634323
31
0.0
0
LINE
8
Default
62
5
5
28f
100
AcDbEntity
100
AcDbLine
10
5.282888
20
14.634323
30
0.0
11
5.303987
21
14.713064
31
0.0
0
LINE
8
Default
62
5
5
290
100
AcDbEntity
100
AcDbLine
10
5.303987
20
14.713064
30
0.0
11
5.303987
21
14.713064
31
0.0
0
LINE
8
Default
62
5
5
291
100
AcDbEntity
100
AcDbLine
10
4.299016
20
12.364991
30
0.0
11
4.289742
21
12.400044
31
0.0
0
LINE
8
Default
62
5
5
292
100
AcDbEntity
100
AcDbLine
10
4.289742
20
12.400044
30
0.0
11
4.264151
21
12.425731
31
0.0
0
LINE
8
Default
62
5
5
293
100
AcDbEntity
100
AcDbLine
10
4.264151
20
12.425731
30
0.0
11
4.229134
21
12.435138
31
0.0
0
LINE
8
Default
62
5
5
294
100
AcDbEntity
100
AcDbLine
10
4.229134
20
12.435138
30
0.0
11
4.194117
21
12.425731
31
0.0
0
LINE
8
Default
62
5
5
295
100
AcDbEntity
100
AcDbLine
10
4.194117
20
12.425731
30
0.0
11
4.168527
21
12.400044
31
0.0
0
LINE
8
Default
62
5
5
296
100
AcDbEntity
100
AcDbLine
10
4.168527
20
12.400044
30
0.0
11
4.159253
21
12.364991
31
0.0
0
LINE
8
Default
62
5
5
297
100
AcDbEntity
100
AcDbLine
10
4.159253
20
12.364991
30
0.0
11
4.168527
21
12.329939
31
0.0
0
LINE
8
Default
62
5
5
298
100
AcDbEntity
100
AcDbLine
10
4.168527
20
12.329939
30
0.0
11
4.194117
21
12.304252
31
0.0
0
LINE
8
Default
62
5
5
299
100
AcDbEntity
100
AcDbLine
10
4.194117
20
12.304252
30
0.0
11
4.229134
21
12.294845
31
0.0
0
LINE
8
Default
62
5
5
29a
100
AcDbEntity
100
AcDbLine
10
4.229134
20
12.294845
30
0.0
11
4.264151
21
12.304252
31
0.0
0
LINE
8
Default
62
5
5
29b
100
AcDbEntity
100
AcDbLine
10
4.264151
20
12.304252
30
0.0
11
4.289742
21
12.329939
31
0.0
0
LINE
8
Default
62
5
5
29c
100
AcDbEntity
100
AcDbLine
10
4.289742
20
12.329939
30
0.0
11
4.299016
21
12.364991
31
0.0
0
LINE
8
Default
62
5
5
29d
100
AcDbEntity
100
AcDbLine
10
4.299016
20
12.364991
30
0.0
11
4.299016
21
12.364991
31
0.0
0
LINE
8
Default
62
5
5
29e
100
AcDbEntity
100
AcDbLine
10
3.511615
20
13.728811
30
0.0
11
3.502253
21
13.763753
31
0.0
0
LINE
8
Default
62
5
5
29f
100
AcDbEntity
100
AcDbLine
10
3.502253
20
13.763753
30
0.0
11
3.476674
21
13.789331
31
0.0
0
LINE
8
Default
62
5
5
2a0
100
AcDbEntity
100
AcDbLine
10
3.476674
20
13.789331
30
0.0
11
3.441733
21
13.798694
31
0.0
0
LINE
8
Default
62
5
5
2a1
100
AcDbEntity
100
AcDbLine
10
3.441733
20
13.798694
30
0.0
11
3.406792
21
13.789331
31
0.0
0
LINE
8
Default
62
5
5
2a2
100
AcDbEntity
100
AcDbLine
10
3.406792
20
13.789331
30
0.0
11
3.381213
21
13.763753
31
0.0
0
LINE
8
Default
62
5
5
2a3
100
AcDbEntity
100
AcDbLine
10
3.381213
20
13.763753
30
0.0
11
3.371851
21
13.728811
31
0.0
0
LINE
8
Default
62
5
5
2a4
100
AcDbEntity
100
AcDbLine
10
3.371851
20
13.728811
30
0.0
11
3.381213
21
13.693870
31
0.0
0
LINE
8
Default
62
5
5
2a5
100
AcDbEntity
100
AcDbLine
10
3.381213
20
13.693870
30
0.0
11
3.406792
21
13.668292
31
0.0
0
LINE
8
Default
62
5
5
2a6
100
AcDbEntity
100
AcDbLine
10
3.406792
20
13.668292
30
0.0
11
3.441733
21
13.658929
31
0.0
0
LINE
8
Default
62
5
5
2a7
100
AcDbEntity
100
AcDbLine
10
3.441733
20
13.658929
30
0.0
11
3.476674
21
13.668292
31
0.0
0
LINE
8
Default
62
5
5
2a8
100
AcDbEntity
100
AcDbLine
10
3.476674
20
13.668292
30
0.0
11
3.502253
21
13.693870
31
0.0
0
LINE
8
Default
62
5
5
2a9
100
AcDbEntity
100
AcDbLine
10
3.502253
20
13.693870
30
0.0
11
3.511615
21
13.728811
31
0.0
0
LINE
8
Default
62
5
5
2aa
100
AcDbEntity
100
AcDbLine
10
3.511615
20
13.728811
30
0.0
11
3.511615
21
13.728811
31
0.0
0
LINE
8
Default
62
5
5
2ab
100
AcDbEntity
100
AcDbLine
10
4.995611
20
12.651588
30
0.0
11
5.404757
21
12.887808
31
0.0
0
LINE
8
Default
62
5
5
2ac
100
AcDbEntity
100
AcDbLine
10
5.404757
20
12.887808
30
0.0
11
5.269718
21
13.121704
31
0.0
0
LINE
8
Default
62
5
5
2ad
100
AcDbEntity
100
AcDbLine
10
5.269718
20
13.121704
30
0.0
11
4.860571
21
12.885483
31
0.0
0
LINE
8
Default
62
5
5
2ae
100
AcDbEntity
100
AcDbLine
10
7.109531
20
13.872060
30
0.0
11
6.974492
21
14.105955
31
0.0
0
LINE
8
Default
62
5
5
2af
100
AcDbEntity
100
AcDbLine
10
6.974492
20
14.105955
30
0.0
11
6.463059
21
13.810679
31
0.0
0
LINE
8
Default
62
5
5
2b0
100
AcDbEntity
100
AcDbLine
10
6.463059
20
13.810679
30
0.0
11
6.598099
21
13.576785
31
0.0
0
LINE
8
Default
62
5
5
2b1
100
AcDbEntity
100
AcDbLine
10
6.598099
20
13.576785
30
0.0
11
7.109531
21
13.872060
31
0.0
0
LINE
8
Default
62
5
5
2b2
100
AcDbEntity
100
AcDbLine
10
4.860571
20
12.885483
30
0.0
11
4.995611
21
12.651588
31
0.0
0
LINE
8
Default
62
5
5
2b3
100
AcDbEntity
100
AcDbLine
10
-0.552507
20
8.347820
30
0.0
11
-0.470678
21
8.300576
31
0.0
0
LINE
8
Default
62
5
5
2b4
100
AcDbEntity
100
AcDbLine
10
-0.441150
20
8.351719
30
0.0
11
-0.522980
21
8.398964
31
0.0
0
LINE
8
Default
62
5
5
2b5
100
AcDbEntity
100
AcDbLine
10
-0.690302
20
8.109152
30
0.0
11
-0.608473
21
8.061908
31
0.0
0
LINE
8
Default
62
5
5
2b6
100
AcDbEntity
100
AcDbLine
10
-0.578946
20
8.113052
30
0.0
11
-0.660775
21
8.160295
31
0.0
0
LINE
8
Default
62
5
5
2b7
100
AcDbEntity
100
AcDbLine
10
-0.522980
20
8.398964
30
0.0
11
-0.552510
21
8.398967
31
0.0
0
LINE
8
Default
62
5
5
2b8
100
AcDbEntity
100
AcDbLine
10
-0.552510
20
8.398967
30
0.0
11
-0.567275
21
8.373393
31
0.0
0
LINE
8
Default
62
5
5
2b9
100
AcDbEntity
100
AcDbLine
10
-0.567275
20
8.373393
30
0.0
11
-0.552507
21
8.347820
31
0.0
0
LINE
8
Default
62
5
5
2ba
100
AcDbEntity
100
AcDbLine
10
-0.660775
20
8.160295
30
0.0
11
-0.683179
21
8.163242
31
0.0
0
LINE
8
Default
62
5
5
2bb
100
AcDbEntity
100
AcDbLine
10
-0.683179
20
8.163242
30
0.0
11
-0.701106
21
8.149485
31
0.0
0
LINE
8
Default
62
5
5
2bc
100
AcDbEntity
100
AcDbLine
10
-0.701106
20
8.149485
30
0.0
11
-0.704057
21
8.127081
31
0.0
0
LINE
8
Default
62
5
5
2bd
100
AcDbEntity
100
AcDbLine
10
-0.704057
20
8.127081
30
0.0
11
-0.690302
21
8.109152
31
0.0
0
LINE
8
Default
62
5
5
2be
100
AcDbEntity
100
AcDbLine
10
-0.608473
20
8.061908
30
0.0
11
-0.586069
21
8.058961
31
0.0
0
LINE
8
Default
62
5
5
2bf
100
AcDbEntity
100
AcDbLine
10
-0.586069
20
8.058961
30
0.0
11
-0.568142
21
8.072718
31
0.0
0
LINE
8
Default
62
5
5
2c0
100
AcDbEntity
100
AcDbLine
10
-0.568142
20
8.072718
30
0.0
11
-0.565192
21
8.095122
31
0.0
0
LINE
8
Default
62
5
5
2c1
100
AcDbEntity
100
AcDbLine
10
-0.565192
20
8.095122
30
0.0
11
-0.578946
21
8.113052
31
0.0
0
LINE
8
Default
62
5
5
2c2
100
AcDbEntity
100
AcDbLine
10
-0.470678
20
8.300576
30
0.0
11
-0.441148
21
8.300573
31
0.0
0
LINE
8
Default
62
5
5
2c3
100
AcDbEntity
100
AcDbLine
10
-0.441148
20
8.300573
30
0.0
11
-0.426383
21
8.326147
31
0.0
0
LINE
8
Default
62
5
5
2c4
100
AcDbEntity
100
AcDbLine
10
-0.426383
20
8.326147
30
0.0
11
-0.441150
21
8.351719
31
0.0
0
LINE
8
Default
62
5
5
2c5
100
AcDbEntity
100
AcDbLine
10
3.324303
20
8.275246
30
0.0
11
3.406132
21
8.322490
31
0.0
0
LINE
8
Default
62
5
5
2c6
100
AcDbEntity
100
AcDbLine
10
3.376604
20
8.373633
30
0.0
11
3.294775
21
8.326389
31
0.0
0
LINE
8
Default
62
5
5
2c7
100
AcDbEntity
100
AcDbLine
10
3.462098
20
8.036577
30
0.0
11
3.543927
21
8.083822
31
0.0
0
LINE
8
Default
62
5
5
2c8
100
AcDbEntity
100
AcDbLine
10
3.514399
20
8.134965
30
0.0
11
3.432571
21
8.087720
31
0.0
0
LINE
8
Default
62
5
5
2c9
100
AcDbEntity
100
AcDbLine
10
3.294775
20
8.326389
30
0.0
11
3.280007
21
8.300817
31
0.0
0
LINE
8
Default
62
5
5
2ca
100
AcDbEntity
100
AcDbLine
10
3.280007
20
8.300817
30
0.0
11
3.294772
21
8.275243
31
0.0
0
LINE
8
Default
62
5
5
2cb
100
AcDbEntity
100
AcDbLine
10
3.294772
20
8.275243
30
0.0
11
3.324303
21
8.275246
31
0.0
0
LINE
8
Default
62
5
5
2cc
100
AcDbEntity
100
AcDbLine
10
3.432571
20
8.087720
30
0.0
11
3.418816
21
8.069791
31
0.0
0
LINE
8
Default
62
5
5
2cd
100
AcDbEntity
100
AcDbLine
10
3.418816
20
8.069791
30
0.0
11
3.421767
21
8.047387
31
0.0
0
LINE
8
Default
62
5
5
2ce
100
AcDbEntity
100
AcDbLine
10
3.421767
20
8.047387
30
0.0
11
3.439694
21
8.033630
31
0.0
0
LINE
8
Default
62
5
5
2cf
100
AcDbEntity
100
AcDbLine
10
3.439694
20
8.033630
30
0.0
11
3.462098
21
8.036577
31
0.0
0
LINE
8
Default
62
5
5
2d0
100
AcDbEntity
100
AcDbLine
10
3.543927
20
8.083822
30
0.0
11
3.557681
21
8.101751
31
0.0
0
LINE
8
Default
62
5
5
2d1
100
AcDbEntity
100
AcDbLine
10
3.557681
20
8.101751
30
0.0
11
3.554731
21
8.124155
31
0.0
0
LINE
8
Default
62
5
5
2d2
100
AcDbEntity
100
AcDbLine
10
3.554731
20
8.124155
30
0.0
11
3.536804
21
8.137912
31
0.0
0
LINE
8
Default
62
5
5
2d3
100
AcDbEntity
100
AcDbLine
10
3.536804
20
8.137912
30
0.0
11
3.514399
21
8.134965
31
0.0
0
LINE
8
Default
62
5
5
2d4
100
AcDbEntity
100
AcDbLine
10
3.406132
20
8.322490
30
0.0
11
3.421025
21
8.348087
31
0.0
0
LINE
8
Default
62
5
5
2d5
100
AcDbEntity
100
AcDbLine
10
3.421025
20
8.348087
30
0.0
11
3.406218
21
8.373734
31
0.0
0
LINE
8
Default
62
5
5
2d6
100
AcDbEntity
100
AcDbLine
10
3.406218
20
8.373734
30
0.0
11
3.376604
21
8.373633
31
0.0
0
LINE
8
Default
62
5
5
2d7
100
AcDbEntity
100
AcDbLine
10
5.325559
20
11.596375
30
0.0
11
5.325559
21
11.690863
31
0.0
0
LINE
8
Default
62
5
5
2d8
100
AcDbEntity
100
AcDbLine
10
5.266503
20
11.690863
30
0.0
11
5.266503
21
11.596375
31
0.0
0
LINE
8
Default
62
5
5
2d9
100
AcDbEntity
100
AcDbLine
10
5.601149
20
11.596375
30
0.0
11
5.601149
21
11.690863
31
0.0
0
LINE
8
Default
62
5
5
2da
100
AcDbEntity
100
AcDbLine
10
5.542094
20
11.690863
30
0.0
11
5.542094
21
11.596375
31
0.0
0
LINE
8
Default
62
5
5
2db
100
AcDbEntity
100
AcDbLine
10
5.266503
20
11.596375
30
0.0
11
5.281267
21
11.570803
31
0.0
0
LINE
8
Default
62
5
5
2dc
100
AcDbEntity
100
AcDbLine
10
5.281267
20
11.570803
30
0.0
11
5.310795
21
11.570803
31
0.0
0
LINE
8
Default
62
5
5
2dd
100
AcDbEntity
100
AcDbLine
10
5.310795
20
11.570803
30
0.0
11
5.325559
21
11.596375
31
0.0
0
LINE
8
Default
62
5
5
2de
100
AcDbEntity
100
AcDbLine
10
5.542094
20
11.596375
30
0.0
11
5.550792
21
11.575586
31
0.0
0
LINE
8
Default
62
5
5
2df
100
AcDbEntity
100
AcDbLine
10
5.550792
20
11.575586
30
0.0
11
5.571622
21
11.566988
31
0.0
0
LINE
8
Default
62
5
5
2e0
100
AcDbEntity
100
AcDbLine
10
5.571622
20
11.566988
30
0.0
11
5.592451
21
11.575586
31
0.0
0
LINE
8
Default
62
5
5
2e1
100
AcDbEntity
100
AcDbLine
10
5.592451
20
11.575586
30
0.0
11
5.601149
21
11.596375
31
0.0
0
LINE
8
Default
62
5
5
2e2
100
AcDbEntity
100
AcDbLine
10
5.601149
20
11.690863
30
0.0
11
5.592451
21
11.711651
31
0.0
0
LINE
8
Default
62
5
5
2e3
100
AcDbEntity
100
AcDbLine
10
5.592451
20
11.711651
30
0.0
11
5.571622
21
11.720250
31
0.0
0
LINE
8
Default
62
5
5
2e4
100
AcDbEntity
100
AcDbLine
10
5.571622
20
11.720250
30
0.0
11
5.550792
21
11.711651
31
0.0
0
LINE
8
Default
62
5
5
2e5
100
AcDbEntity
100
AcDbLine
10
5.550792
20
11.711651
30
0.0
11
5.542094
21
11.690863
31
0.0
0
LINE
8
Default
62
5
5
2e6
100
AcDbEntity
100
AcDbLine
10
5.325559
20
11.690863
30
0.0
11
5.310795
21
11.716434
31
0.0
0
LINE
8
Default
62
5
5
2e7
100
AcDbEntity
100
AcDbLine
10
5.310795
20
11.716434
30
0.0
11
5.281267
21
11.716434
31
0.0
0
LINE
8
Default
62
5
5
2e8
100
AcDbEntity
100
AcDbLine
10
5.281267
20
11.716434
30
0.0
11
5.266503
21
11.690863
31
0.0
0
LINE
8
Default
62
5
5
2e9
100
AcDbEntity
100
AcDbLine
10
3.450005
20
14.990077
30
0.0
11
3.368176
21
15.037321
31
0.0
0
LINE
8
Default
62
5
5
2ea
100
AcDbEntity
100
AcDbLine
10
3.338648
20
14.986178
30
0.0
11
3.420478
21
14.938934
31
0.0
0
LINE
8
Default
62
5
5
2eb
100
AcDbEntity
100
AcDbLine
10
3.587801
20
15.228746
30
0.0
11
3.505972
21
15.275990
31
0.0
0
LINE
8
Default
62
5
5
2ec
100
AcDbEntity
100
AcDbLine
10
3.476444
20
15.224847
30
0.0
11
3.558273
21
15.177603
31
0.0
0
LINE
8
Default
62
5
5
2ed
100
AcDbEntity
100
AcDbLine
10
3.420478
20
14.938934
30
0.0
11
3.450065
21
14.938865
31
0.0
0
LINE
8
Default
62
5
5
2ee
100
AcDbEntity
100
AcDbLine
10
3.450065
20
14.938865
30
0.0
11
3.464858
21
14.964489
31
0.0
0
LINE
8
Default
62
5
5
2ef
100
AcDbEntity
100
AcDbLine
10
3.464858
20
14.964489
30
0.0
11
3.450005
21
14.990077
31
0.0
0
LINE
8
Default
62
5
5
2f0
100
AcDbEntity
100
AcDbLine
10
3.558273
20
15.177603
30
0.0
11
3.580677
21
15.174656
31
0.0
0
LINE
8
Default
62
5
5
2f1
100
AcDbEntity
100
AcDbLine
10
3.580677
20
15.174656
30
0.0
11
3.598604
21
15.188413
31
0.0
0
LINE
8
Default
62
5
5
2f2
100
AcDbEntity
100
AcDbLine
10
3.598604
20
15.188413
30
0.0
11
3.601555
21
15.210817
31
0.0
0
LINE
8
Default
62
5
5
2f3
100
AcDbEntity
100
AcDbLine
10
3.601555
20
15.210817
30
0.0
11
3.587801
21
15.228746
31
0.0
0
LINE
8
Default
62
5
5
2f4
100
AcDbEntity
100
AcDbLine
10
3.505972
20
15.275990
30
0.0
11
3.483567
21
15.278937
31
0.0
0
LINE
8
Default
62
5
5
2f5
100
AcDbEntity
100
AcDbLine
10
3.483567
20
15.278937
30
0.0
11
3.465640
21
15.265180
31
0.0
0
LINE
8
Default
62
5
5
2f6
100
AcDbEntity
100
AcDbLine
10
3.465640
20
15.265180
30
0.0
11
3.462690
21
15.242776
31
0.0
0
LINE
8
Default
62
5
5
2f7
100
AcDbEntity
100
AcDbLine
10
3.462690
20
15.242776
30
0.0
11
3.476444
21
15.224847
31
0.0
0
LINE
8
Default
62
5
5
2f8
100
AcDbEntity
100
AcDbLine
10
3.368176
20
15.037321
30
0.0
11
3.338646
21
15.037325
31
0.0
0
LINE
8
Default
62
5
5
2f9
100
AcDbEntity
100
AcDbLine
10
3.338646
20
15.037325
30
0.0
11
3.323880
21
15.011751
31
0.0
0
LINE
8
Default
62
5
5
2fa
100
AcDbEntity
100
AcDbLine
10
3.323880
20
15.011751
30
0.0
11
3.338648
21
14.986178
31
0.0
0
LINE
8
Default
62
1
5
2fb
100
AcDbEntity
100
AcDbLine
10
5.878221
20
18.611540
30
0.0
11
8.261494
21
14.483590
31
0.0
  0
ENDSEC
  0
SECTION
  2
OBJECTS
  0
DICTIONARY
  5
C
330
0
100
AcDbDictionary
  3
ACAD_GROUP
350
D
  3
ACAD_MLINESTYLE
350
17
  0
DICTIONARY
  5
D
330
C
100
AcDbDictionary
  0
DICTIONARY
  5
1A
330
C
100
AcDbDictionary
  0
DICTIONARY
  5
17
330
C
100
AcDbDictionary
  3
STANDARD
350
18
  0
DICTIONARY
  5
19
330
C
100
AcDbDictionary
  0
ENDSEC
  0
EOF
