  0
SECTION
  2
BLOCKS
  0
ENDSEC
  0
SECTION
  2
ENTITIES
  0
LINE
  8
0
 10
31.2122
 20
71.7037
 11
26.1907
 21
73.3082
  0
LINE
  8
0
 10
26.1907
 20
73.3082
 11
21.0894
 21
74.6295
  0
LINE
  8
0
 10
21.0894
 20
74.6295
 11
15.9082
 21
75.6664
  0
LINE
  8
0
 10
15.9082
 20
75.6664
 11
10.6458
 21
76.4152
  0
LINE
  8
0
 10
10.6458
 20
76.4152
 11
5.33011
 21
76.8676
  0
LINE
  8
0
 10
5.33011
 20
76.8676
 11
0.0322266
 21
77.0189
  0
LINE
  8
0
 10
0.0322266
 20
77.0189
 11
-5.24496
 21
76.8738
  0
LINE
  8
0
 10
-5.24496
 20
76.8738
 11
-10.5016
 21
76.4342
  0
LINE
  8
0
 10
-10.5016
 20
76.4342
 11
-15.7377
 21
75.6996
  0
LINE
  8
0
 10
-15.7377
 20
75.6996
 11
-20.953
 21
74.6663
  0
LINE
  8
0
 10
-20.953
 20
74.6663
 11
-26.1246
 21
73.3344
  0
LINE
  8
0
 10
-26.1246
 20
73.3344
 11
-31.1971
 21
71.7176
  0
LINE
  8
0
 10
-31.1971
 20
71.7176
 11
-36.1684
 21
69.8181
  0
LINE
  8
0
 10
-36.1684
 20
69.8181
 11
-41.038
 21
67.6351
  0
LINE
  8
0
 10
-41.038
 20
67.6351
 11
-43.5174
 21
66.2925
  0
LINE
  8
0
 10
-43.5174
 20
66.2925
 11
-45.8451
 21
64.7353
  0
LINE
  8
0
 10
-45.8451
 20
64.7353
 11
-48.0207
 21
62.9629
  0
LINE
  8
0
 10
-48.0207
 20
62.9629
 11
-50.0343
 21
60.976
  0
LINE
  8
0
 10
-50.0343
 20
60.976
 11
-51.8356
 21
58.8209
  0
LINE
  8
0
 10
-51.8356
 20
58.8209
 11
-53.4175
 21
56.5111
  0
LINE
  8
0
 10
-53.4175
 20
56.5111
 11
-54.778
 21
54.0455
  0
LINE
  8
0
 10
-54.778
 20
54.0455
 11
-55.898
 21
51.4509
  0
LINE
  8
0
 10
-55.898
 20
51.4509
 11
-56.7553
 21
48.7821
  0
LINE
  8
0
 10
-56.7553
 20
48.7821
 11
-57.3536
 21
46.0414
  0
LINE
  8
0
 10
-57.3536
 20
46.0414
 11
-57.6887
 21
43.2329
  0
LINE
  8
0
 10
-57.6887
 20
43.2329
 11
-57.754
 21
40.4216
  0
LINE
  8
0
 10
-57.754
 20
40.4216
 11
-57.5545
 21
37.6274
  0
LINE
  8
0
 10
-57.5545
 20
37.6274
 11
-57.0929
 21
34.8502
  0
LINE
  8
0
 10
-57.0929
 20
34.8502
 11
-56.3714
 21
32.1126
  0
LINE
  8
0
 10
-56.3714
 20
32.1126
 11
-55.4024
 21
29.4543
  0
LINE
  8
0
 10
-55.4024
 20
29.4543
 11
-54.2181
 21
26.4384
  0
LINE
  8
0
 10
-54.2181
 20
26.4384
 11
-52.6875
 21
21.8578
  0
LINE
  8
0
 10
-52.6875
 20
21.8578
 11
-51.4499
 21
17.2094
  0
LINE
  8
0
 10
-51.4499
 20
17.2094
 11
-50.7881
 21
14.0728
  0
LINE
  8
0
 10
-50.7881
 20
14.0728
 11
-50.2581
 21
10.9055
  0
LINE
  8
0
 10
-50.2581
 20
10.9055
 11
-49.8616
 21
7.70743
  0
LINE
  8
0
 10
-49.8616
 20
7.70743
 11
-49.6011
 21
4.47777
  0
LINE
  8
0
 10
-49.6011
 20
4.47777
 11
-49.48
 21
1.24026
  0
LINE
  8
0
 10
-49.48
 20
1.24026
 11
-49.5589
 21
-3.58672
  0
LINE
  8
0
 10
-49.5589
 20
-3.58672
 11
-49.9453
 21
-8.37927
  0
LINE
  8
0
 10
-49.9453
 20
-8.37927
 11
-50.372
 21
-11.5554
  0
LINE
  8
0
 10
-50.372
 20
-11.5554
 11
-51.2652
 21
-16.2914
  0
LINE
  8
0
 10
-51.2652
 20
-16.2914
 11
-52.464
 21
-20.9933
  0
LINE
  8
0
 10
-52.464
 20
-20.9933
 11
-53.8144
 21
-25.2129
  0
LINE
  8
0
 10
-53.8144
 20
-25.2129
 11
-55.4024
 21
-29.3491
  0
LINE
  8
0
 10
-55.4024
 20
-29.3491
 11
-56.282
 21
-31.7273
  0
LINE
  8
0
 10
-56.282
 20
-31.7273
 11
-56.9598
 21
-34.1534
  0
LINE
  8
0
 10
-56.9598
 20
-34.1534
 11
-57.4348
 21
-36.6277
  0
LINE
  8
0
 10
-57.4348
 20
-36.6277
 11
-57.7028
 21
-39.1509
  0
LINE
  8
0
 10
-57.7028
 20
-39.1509
 11
-57.7559
 21
-41.6681
  0
LINE
  8
0
 10
-57.7559
 20
-41.6681
 11
-57.6564
 21
-43.5411
  0
LINE
  8
0
 10
-57.6564
 20
-43.5411
 11
-57.4386
 21
-45.4013
  0
LINE
  8
0
 10
-57.4386
 20
-45.4013
 11
-57.1014
 21
-47.2489
  0
LINE
  8
0
 10
-57.1014
 20
-47.2489
 11
-56.6429
 21
-49.0833
  0
LINE
  8
0
 10
-56.6429
 20
-49.0833
 11
-55.8491
 21
-51.475
  0
LINE
  8
0
 10
-55.8491
 20
-51.475
 11
-55.1253
 21
-53.2066
  0
LINE
  8
0
 10
-55.1253
 20
-53.2066
 11
-53.8361
 21
-55.7053
  0
LINE
  8
0
 10
-53.8361
 20
-55.7053
 11
-52.3005
 21
-58.0847
  0
LINE
  8
0
 10
-52.3005
 20
-58.0847
 11
-50.781
 21
-60.0278
  0
LINE
  8
0
 10
-50.781
 20
-60.0278
 11
-49.1161
 21
-61.8244
  0
LINE
  8
0
 10
-49.1161
 20
-61.8244
 11
-47.3081
 21
-63.4765
  0
LINE
  8
0
 10
-47.3081
 20
-63.4765
 11
-45.3564
 21
-64.9837
  0
LINE
  8
0
 10
-45.3564
 20
-64.9837
 11
-43.2501
 21
-66.3468
  0
LINE
  8
0
 10
-43.2501
 20
-66.3468
 11
-41.038
 21
-67.5299
  0
LINE
  8
0
 10
-41.038
 20
-67.5299
 11
-37.3222
 21
-69.2254
  0
LINE
  8
0
 10
-37.3222
 20
-69.2254
 11
-31.6587
 21
-71.4494
  0
LINE
  8
0
 10
-31.6587
 20
-71.4494
 11
-25.8891
 21
-73.2967
  0
LINE
  8
0
 10
-25.8891
 20
-73.2967
 11
-21.9842
 21
-74.3203
  0
LINE
  8
0
 10
-21.9842
 20
-74.3203
 11
-18.0324
 21
-75.1773
  0
LINE
  8
0
 10
-18.0324
 20
-75.1773
 11
-14.0334
 21
-75.8664
  0
LINE
  8
0
 10
-14.0334
 20
-75.8664
 11
-9.98636
 21
-76.3852
  0
LINE
  8
0
 10
-9.98636
 20
-76.3852
 11
-5.91245
 21
-76.7291
  0
LINE
  8
0
 10
-5.91245
 20
-76.7291
 11
0.176422
 21
-76.9135
  0
LINE
  8
0
 10
0.176422
 20
-76.9135
 11
6.23799
 21
-76.7065
  0
LINE
  8
0
 10
6.23799
 20
-76.7065
 11
10.264
 21
-76.3526
  0
LINE
  8
0
 10
10.264
 20
-76.3526
 11
16.2803
 21
-75.4967
  0
LINE
  8
0
 10
16.2803
 20
-75.4967
 11
22.269
 21
-74.2457
  0
LINE
  8
0
 10
22.269
 20
-74.2457
 11
27.0884
 21
-72.9388
  0
LINE
  8
0
 10
27.0884
 20
-72.9388
 11
31.8187
 21
-71.3835
  0
LINE
  8
0
 10
31.8187
 20
-71.3835
 11
36.4605
 21
-69.5808
  0
LINE
  8
0
 10
36.4605
 20
-69.5808
 11
41.0133
 21
-67.5299
  0
LINE
  8
0
 10
41.0133
 20
-67.5299
 11
43.2372
 21
-66.3398
  0
LINE
  8
0
 10
43.2372
 20
-66.3398
 11
45.3397
 21
-64.978
  0
LINE
  8
0
 10
45.3397
 20
-64.978
 11
47.321
 21
-63.4447
  0
LINE
  8
0
 10
47.321
 20
-63.4447
 11
49.1788
 21
-61.7371
  0
LINE
  8
0
 10
49.1788
 20
-61.7371
 11
50.8699
 21
-59.8936
  0
LINE
  8
0
 10
50.8699
 20
-59.8936
 11
52.0241
 21
-58.4307
  0
LINE
  8
0
 10
52.0241
 20
-58.4307
 11
53.0815
 21
-56.8996
  0
LINE
  8
0
 10
53.0815
 20
-56.8996
 11
54.0416
 21
-55.2999
  0
LINE
  8
0
 10
54.0416
 20
-55.2999
 11
54.9029
 21
-53.6306
  0
LINE
  8
0
 10
54.9029
 20
-53.6306
 11
55.8806
 21
-51.326
  0
LINE
  8
0
 10
55.8806
 20
-51.326
 11
56.4781
 21
-49.5598
  0
LINE
  8
0
 10
56.4781
 20
-49.5598
 11
57.1597
 21
-46.8508
  0
LINE
  8
0
 10
57.1597
 20
-46.8508
 11
57.582
 21
-44.0697
  0
LINE
  8
0
 10
57.582
 20
-44.0697
 11
57.7325
 21
-41.6038
  0
LINE
  8
0
 10
57.7325
 20
-41.6038
 11
57.6781
 21
-39.151
  0
LINE
  8
0
 10
57.6781
 20
-39.151
 11
57.4224
 21
-36.7114
  0
LINE
  8
0
 10
57.4224
 20
-36.7114
 11
56.9657
 21
-34.2847
  0
LINE
  8
0
 10
56.9657
 20
-34.2847
 11
56.2754
 21
-31.7832
  0
LINE
  8
0
 10
56.2754
 20
-31.7832
 11
55.3777
 21
-29.3491
  0
LINE
  8
0
 10
55.3777
 20
-29.3491
 11
54.0942
 21
-26.0628
  0
LINE
  8
0
 10
54.0942
 20
-26.0628
 11
52.9676
 21
-22.745
  0
LINE
  8
0
 10
52.9676
 20
-22.745
 11
51.9969
 21
-19.3975
  0
LINE
  8
0
 10
51.9969
 20
-19.3975
 11
51.1813
 21
-16.0222
  0
LINE
  8
0
 10
51.1813
 20
-16.0222
 11
50.5211
 21
-12.6206
  0
LINE
  8
0
 10
50.5211
 20
-12.6206
 11
50.0169
 21
-9.19405
  0
LINE
  8
0
 10
50.0169
 20
-9.19405
 11
49.6699
 21
-5.74368
  0
LINE
  8
0
 10
49.6699
 20
-5.74368
 11
49.5772
 21
-4.38602
  0
LINE
  8
0
 10
49.5772
 20
-4.38602
 11
49.4516
 21
-0.876648
  0
LINE
  8
0
 10
49.4516
 20
-0.876648
 11
49.4896
 21
2.6153
  0
LINE
  8
0
 10
49.4896
 20
2.6153
 11
49.6889
 21
6.0898
  0
LINE
  8
0
 10
49.6889
 20
6.0898
 11
50.048
 21
9.54663
  0
LINE
  8
0
 10
50.048
 20
9.54663
 11
50.5659
 21
12.9853
  0
LINE
  8
0
 10
50.5659
 20
12.9853
 11
51.2423
 21
16.4051
  0
LINE
  8
0
 10
51.2423
 20
16.4051
 11
52.0778
 21
19.8047
  0
LINE
  8
0
 10
52.0778
 20
19.8047
 11
52.4392
 21
21.0986
  0
LINE
  8
0
 10
52.4392
 20
21.0986
 11
53.4953
 21
24.4654
  0
LINE
  8
0
 10
53.4953
 20
24.4654
 11
54.7048
 21
27.786
  0
LINE
  8
0
 10
54.7048
 20
27.786
 11
55.3777
 21
29.4543
  0
LINE
  8
0
 10
55.3777
 20
29.4543
 11
56.258
 21
31.8348
  0
LINE
  8
0
 10
56.258
 20
31.8348
 11
56.7856
 21
33.6516
  0
LINE
  8
0
 10
56.7856
 20
33.6516
 11
57.1992
 21
35.4956
  0
LINE
  8
0
 10
57.1992
 20
35.4956
 11
57.4977
 21
37.3668
  0
LINE
  8
0
 10
57.4977
 20
37.3668
 11
57.6787
 21
39.2658
  0
LINE
  8
0
 10
57.6787
 20
39.2658
 11
57.7305
 21
41.8049
  0
LINE
  8
0
 10
57.7305
 20
41.8049
 11
57.6277
 21
43.6939
  0
LINE
  8
0
 10
57.6277
 20
43.6939
 11
57.2472
 21
46.5034
  0
LINE
  8
0
 10
57.2472
 20
46.5034
 11
56.591
 21
49.2831
  0
LINE
  8
0
 10
56.591
 20
49.2831
 11
55.5747
 21
52.2137
  0
LINE
  8
0
 10
55.5747
 20
52.2137
 11
54.2626
 21
55.001
  0
LINE
  8
0
 10
54.2626
 20
55.001
 11
52.6562
 21
57.6457
  0
LINE
  8
0
 10
52.6562
 20
57.6457
 11
50.7702
 21
60.1165
  0
LINE
  8
0
 10
50.7702
 20
60.1165
 11
48.6518
 21
62.3568
  0
LINE
  8
0
 10
48.6518
 20
62.3568
 11
46.3067
 21
64.3681
  0
LINE
  8
0
 10
46.3067
 20
64.3681
 11
43.7442
 21
66.139
  0
LINE
  8
0
 10
43.7442
 20
66.139
 11
41.0133
 21
67.6351
  0
LINE
  8
0
 10
41.0133
 20
67.6351
 11
36.1535
 21
69.8141
  0
LINE
  8
0
 10
36.1535
 20
69.8141
 11
31.2122
 21
71.7037
  0
ENDSEC
  0
SECTION
  2
OBJECTS
  0
DICTIONARY
  0
ENDSEC
  0
EOF
