solid OpenSCAD_Model
  facet normal 0.987688 0.156435 0
    outer loop
      vertex 5 0 30.1
      vertex 4.75528 1.54508 0
      vertex 4.75528 1.54508 30.1
    endloop
  endfacet
  facet normal 0.987688 0.156435 0
    outer loop
      vertex 4.75528 1.54508 0
      vertex 5 0 30.1
      vertex 5 0 0
    endloop
  endfacet
  facet normal -0.987688 0.156435 0
    outer loop
      vertex -5 0 0
      vertex -4.75528 1.54508 30.1
      vertex -4.75528 1.54508 0
    endloop
  endfacet
  facet normal -0.987688 0.156435 0
    outer loop
      vertex -4.75528 1.54508 30.1
      vertex -5 0 0
      vertex -5 0 30.1
    endloop
  endfacet
  facet normal 0.156435 0.987688 -0
    outer loop
      vertex 1.54508 4.75528 0
      vertex 0 5 30.1
      vertex 1.54508 4.75528 30.1
    endloop
  endfacet
  facet normal 0.156435 0.987688 0
    outer loop
      vertex 0 5 30.1
      vertex 1.54508 4.75528 0
      vertex 0 5 0
    endloop
  endfacet
  facet normal -0.156435 -0.987688 0
    outer loop
      vertex -1.54508 -4.75528 0
      vertex 0 -5 38.09
      vertex -1.54508 -4.75528 38.09
    endloop
  endfacet
  facet normal -0.156435 -0.987688 -0
    outer loop
      vertex 0 -5 38.09
      vertex -1.54508 -4.75528 0
      vertex 0 -5 0
    endloop
  endfacet
  facet normal 0 0 -1
    outer loop
      vertex 2.2 0 0
      vertex 5 0 0
      vertex 4.75528 -1.54508 0
    endloop
  endfacet
  facet normal 0 0 -1
    outer loop
      vertex 2.09232 -0.679837 0
      vertex 4.75528 -1.54508 0
      vertex 4.04508 -2.93893 0
    endloop
  endfacet
  facet normal 0 0 -1
    outer loop
      vertex 5 0 0
      vertex 2.2 0 0
      vertex 4.75528 1.54508 0
    endloop
  endfacet
  facet normal 0 0 -1
    outer loop
      vertex 1.77984 -1.29313 0
      vertex 4.04508 -2.93893 0
      vertex 2.93893 -4.04508 0
    endloop
  endfacet
  facet normal 0 0 -1
    outer loop
      vertex 2.09232 0.679837 0
      vertex 4.75528 1.54508 0
      vertex 2.2 0 0
    endloop
  endfacet
  facet normal -0 0 -1
    outer loop
      vertex 4.75528 1.54508 0
      vertex 2.09232 0.679837 0
      vertex 4.04508 2.93893 0
    endloop
  endfacet
  facet normal 0 0 -1
    outer loop
      vertex 4.75528 -1.54508 0
      vertex 2.09232 -0.679837 0
      vertex 2.2 0 0
    endloop
  endfacet
  facet normal 0 0 -1
    outer loop
      vertex 4.04508 -2.93893 0
      vertex 1.77984 -1.29313 0
      vertex 2.09232 -0.679837 0
    endloop
  endfacet
  facet normal 0 0 -1
    outer loop
      vertex 1.29313 -1.77984 0
      vertex 2.93893 -4.04508 0
      vertex 1.54508 -4.75528 0
    endloop
  endfacet
  facet normal 0 0 -1
    outer loop
      vertex 2.93893 -4.04508 0
      vertex 1.29313 -1.77984 0
      vertex 1.77984 -1.29313 0
    endloop
  endfacet
  facet normal 0 0 -1
    outer loop
      vertex 1.54508 -4.75528 0
      vertex 0.679837 -2.09232 0
      vertex 1.29313 -1.77984 0
    endloop
  endfacet
  facet normal 0 0 -1
    outer loop
      vertex 0 -5 0
      vertex 0.679837 -2.09232 0
      vertex 1.54508 -4.75528 0
    endloop
  endfacet
  facet normal 0 0 -1
    outer loop
      vertex 0 -5 0
      vertex 0 -2.2 0
      vertex 0.679837 -2.09232 0
    endloop
  endfacet
  facet normal 0 0 -1
    outer loop
      vertex 0 -5 0
      vertex -0.679837 -2.09232 0
      vertex 0 -2.2 0
    endloop
  endfacet
  facet normal 0 0 -1
    outer loop
      vertex -1.54508 -4.75528 0
      vertex -0.679837 -2.09232 0
      vertex 0 -5 0
    endloop
  endfacet
  facet normal -0 0 -1
    outer loop
      vertex -0.679837 -2.09232 0
      vertex -1.54508 -4.75528 0
      vertex -1.29313 -1.77984 0
    endloop
  endfacet
  facet normal 0 0 -1
    outer loop
      vertex -2.93893 -4.04508 0
      vertex -1.29313 -1.77984 0
      vertex -1.54508 -4.75528 0
    endloop
  endfacet
  facet normal -0 0 -1
    outer loop
      vertex -1.29313 -1.77984 0
      vertex -2.93893 -4.04508 0
      vertex -1.77984 -1.29313 0
    endloop
  endfacet
  facet normal 0 0 -1
    outer loop
      vertex -4.04508 -2.93893 0
      vertex -1.77984 -1.29313 0
      vertex -2.93893 -4.04508 0
    endloop
  endfacet
  facet normal -0 0 -1
    outer loop
      vertex -1.77984 -1.29313 0
      vertex -4.04508 -2.93893 0
      vertex -2.09232 -0.679837 0
    endloop
  endfacet
  facet normal 0 0 -1
    outer loop
      vertex 1.77984 1.29313 0
      vertex 4.04508 2.93893 0
      vertex 2.09232 0.679837 0
    endloop
  endfacet
  facet normal -0 0 -1
    outer loop
      vertex 4.04508 2.93893 0
      vertex 1.77984 1.29313 0
      vertex 2.93893 4.04508 0
    endloop
  endfacet
  facet normal 0 0 -1
    outer loop
      vertex 1.29313 1.77984 0
      vertex 2.93893 4.04508 0
      vertex 1.77984 1.29313 0
    endloop
  endfacet
  facet normal -0 0 -1
    outer loop
      vertex 2.93893 4.04508 0
      vertex 1.29313 1.77984 0
      vertex 1.54508 4.75528 0
    endloop
  endfacet
  facet normal 0 0 -1
    outer loop
      vertex 0.679837 2.09232 0
      vertex 1.54508 4.75528 0
      vertex 1.29313 1.77984 0
    endloop
  endfacet
  facet normal 0 0 -1
    outer loop
      vertex 0 2.2 0
      vertex 1.54508 4.75528 0
      vertex 0.679837 2.09232 0
    endloop
  endfacet
  facet normal 0 0 -1
    outer loop
      vertex 0 2.2 0
      vertex 0 5 0
      vertex 1.54508 4.75528 0
    endloop
  endfacet
  facet normal 0 0 -1
    outer loop
      vertex -0.679837 2.09232 0
      vertex 0 5 0
      vertex 0 2.2 0
    endloop
  endfacet
  facet normal 0 0 -1
    outer loop
      vertex -1.54508 4.75528 0
      vertex -0.679837 2.09232 0
      vertex -1.29313 1.77984 0
    endloop
  endfacet
  facet normal 0 0 -1
    outer loop
      vertex -0.679837 2.09232 0
      vertex -1.54508 4.75528 0
      vertex 0 5 0
    endloop
  endfacet
  facet normal 0 0 -1
    outer loop
      vertex -2.93893 4.04508 0
      vertex -1.29313 1.77984 0
      vertex -1.77984 1.29313 0
    endloop
  endfacet
  facet normal 0 0 -1
    outer loop
      vertex -4.04508 2.93893 0
      vertex -1.77984 1.29313 0
      vertex -2.09232 0.679837 0
    endloop
  endfacet
  facet normal 0 0 -1
    outer loop
      vertex -4.75528 1.54508 0
      vertex -2.09232 0.679837 0
      vertex -2.2 0 0
    endloop
  endfacet
  facet normal 0 0 -1
    outer loop
      vertex -4.75528 -1.54508 0
      vertex -2.09232 -0.679837 0
      vertex -4.04508 -2.93893 0
    endloop
  endfacet
  facet normal 0 0 -1
    outer loop
      vertex -1.29313 1.77984 0
      vertex -2.93893 4.04508 0
      vertex -1.54508 4.75528 0
    endloop
  endfacet
  facet normal -0 0 -1
    outer loop
      vertex -2.09232 -0.679837 0
      vertex -4.75528 -1.54508 0
      vertex -2.2 0 0
    endloop
  endfacet
  facet normal 0 0 -1
    outer loop
      vertex -1.77984 1.29313 0
      vertex -4.04508 2.93893 0
      vertex -2.93893 4.04508 0
    endloop
  endfacet
  facet normal 0 0 -1
    outer loop
      vertex -5 0 0
      vertex -2.2 0 0
      vertex -4.75528 -1.54508 0
    endloop
  endfacet
  facet normal 0 0 -1
    outer loop
      vertex -2.09232 0.679837 0
      vertex -4.75528 1.54508 0
      vertex -4.04508 2.93893 0
    endloop
  endfacet
  facet normal 0 0 -1
    outer loop
      vertex -2.2 0 0
      vertex -5 0 0
      vertex -4.75528 1.54508 0
    endloop
  endfacet
  facet normal 0.707107 0.707107 0
    outer loop
      vertex 4.04508 2.93893 30.1
      vertex 2.93893 4.04508 0
      vertex 2.93893 4.04508 30.1
    endloop
  endfacet
  facet normal 0.707107 0.707107 0
    outer loop
      vertex 2.93893 4.04508 0
      vertex 4.04508 2.93893 30.1
      vertex 4.04508 2.93893 0
    endloop
  endfacet
  facet normal 0.891006 0.453991 0
    outer loop
      vertex 4.75528 1.54508 30.1
      vertex 4.04508 2.93893 0
      vertex 4.04508 2.93893 30.1
    endloop
  endfacet
  facet normal 0.891006 0.453991 0
    outer loop
      vertex 4.04508 2.93893 0
      vertex 4.75528 1.54508 30.1
      vertex 4.75528 1.54508 0
    endloop
  endfacet
  facet normal 0.453991 0.891006 -0
    outer loop
      vertex 2.93893 4.04508 0
      vertex 1.54508 4.75528 30.1
      vertex 2.93893 4.04508 30.1
    endloop
  endfacet
  facet normal 0.453991 0.891006 0
    outer loop
      vertex 1.54508 4.75528 30.1
      vertex 2.93893 4.04508 0
      vertex 1.54508 4.75528 0
    endloop
  endfacet
  facet normal -0.453991 0.891006 0
    outer loop
      vertex -1.54508 4.75528 0
      vertex -2.93893 4.04508 30.1
      vertex -1.54508 4.75528 30.1
    endloop
  endfacet
  facet normal -0.453991 0.891006 0
    outer loop
      vertex -2.93893 4.04508 30.1
      vertex -1.54508 4.75528 0
      vertex -2.93893 4.04508 0
    endloop
  endfacet
  facet normal -0.707107 0.707107 0
    outer loop
      vertex -4.04508 2.93893 0
      vertex -2.93893 4.04508 30.1
      vertex -2.93893 4.04508 0
    endloop
  endfacet
  facet normal -0.707107 0.707107 0
    outer loop
      vertex -2.93893 4.04508 30.1
      vertex -4.04508 2.93893 0
      vertex -4.04508 2.93893 30.1
    endloop
  endfacet
  facet normal -0.156435 0.987688 0
    outer loop
      vertex 0 5 0
      vertex -1.54508 4.75528 30.1
      vertex 0 5 30.1
    endloop
  endfacet
  facet normal -0.156435 0.987688 0
    outer loop
      vertex -1.54508 4.75528 30.1
      vertex 0 5 0
      vertex -1.54508 4.75528 0
    endloop
  endfacet
  facet normal 0.891006 -0.453991 0
    outer loop
      vertex 4.04508 -2.93893 38.09
      vertex 4.75528 -1.54508 0
      vertex 4.75528 -1.54508 38.09
    endloop
  endfacet
  facet normal 0.891006 -0.453991 0
    outer loop
      vertex 4.75528 -1.54508 0
      vertex 4.04508 -2.93893 38.09
      vertex 4.04508 -2.93893 0
    endloop
  endfacet
  facet normal -0.707107 -0.707107 0
    outer loop
      vertex -2.93893 -4.04508 0
      vertex -4.04508 -2.93893 38.09
      vertex -4.04508 -2.93893 0
    endloop
  endfacet
  facet normal -0.707107 -0.707107 0
    outer loop
      vertex -4.04508 -2.93893 38.09
      vertex -2.93893 -4.04508 0
      vertex -2.93893 -4.04508 38.09
    endloop
  endfacet
  facet normal -0.987688 -0.156435 0
    outer loop
      vertex -4.75528 -1.54508 0
      vertex -5 0 30.1
      vertex -5 0 0
    endloop
  endfacet
  facet normal -0.987688 -0.156435 -0
    outer loop
      vertex -4.75528 -1.54508 38.09
      vertex -5 0 30.1
      vertex -4.75528 -1.54508 0
    endloop
  endfacet
  facet normal -0.987688 -0.156435 0
    outer loop
      vertex -5 0 30.1
      vertex -4.75528 -1.54508 38.09
      vertex -5 0 38.09
    endloop
  endfacet
  facet normal -0.891006 0.453991 0
    outer loop
      vertex -4.75528 1.54508 0
      vertex -4.04508 2.93893 30.1
      vertex -4.04508 2.93893 0
    endloop
  endfacet
  facet normal -0.891006 0.453991 0
    outer loop
      vertex -4.04508 2.93893 30.1
      vertex -4.75528 1.54508 0
      vertex -4.75528 1.54508 30.1
    endloop
  endfacet
  facet normal 0 0 1
    outer loop
      vertex 2.09232 0.679837 30.1
      vertex 4.75528 1.54508 30.1
      vertex 4.04508 2.93893 30.1
    endloop
  endfacet
  facet normal 0 0 1
    outer loop
      vertex 1.77984 1.29313 30.1
      vertex 4.04508 2.93893 30.1
      vertex 2.93893 4.04508 30.1
    endloop
  endfacet
  facet normal 0 0 1
    outer loop
      vertex 4.75528 1.54508 30.1
      vertex 2.09232 0.679837 30.1
      vertex 5 0 30.1
    endloop
  endfacet
  facet normal 0 0 1
    outer loop
      vertex 5 0 30.1
      vertex 2.09232 0.679837 30.1
      vertex 2.2 0 30.1
    endloop
  endfacet
  facet normal 0 0 1
    outer loop
      vertex 4.04508 2.93893 30.1
      vertex 1.77984 1.29313 30.1
      vertex 2.09232 0.679837 30.1
    endloop
  endfacet
  facet normal 0 0 1
    outer loop
      vertex 1.29313 1.77984 30.1
      vertex 2.93893 4.04508 30.1
      vertex 1.54508 4.75528 30.1
    endloop
  endfacet
  facet normal 0 0 1
    outer loop
      vertex 2.93893 4.04508 30.1
      vertex 1.29313 1.77984 30.1
      vertex 1.77984 1.29313 30.1
    endloop
  endfacet
  facet normal 0 0 1
    outer loop
      vertex 1.54508 4.75528 30.1
      vertex 0.679837 2.09232 30.1
      vertex 1.29313 1.77984 30.1
    endloop
  endfacet
  facet normal 0 0 1
    outer loop
      vertex 0 5 30.1
      vertex 0.679837 2.09232 30.1
      vertex 1.54508 4.75528 30.1
    endloop
  endfacet
  facet normal 0 0 1
    outer loop
      vertex 0 5 30.1
      vertex 0 2.2 30.1
      vertex 0.679837 2.09232 30.1
    endloop
  endfacet
  facet normal 0 0 1
    outer loop
      vertex 0 5 30.1
      vertex -0.679837 2.09232 30.1
      vertex 0 2.2 30.1
    endloop
  endfacet
  facet normal -0 0 1
    outer loop
      vertex -1.54508 4.75528 30.1
      vertex -0.679837 2.09232 30.1
      vertex 0 5 30.1
    endloop
  endfacet
  facet normal 0 0 1
    outer loop
      vertex -0.679837 2.09232 30.1
      vertex -1.54508 4.75528 30.1
      vertex -1.29313 1.77984 30.1
    endloop
  endfacet
  facet normal -0 0 1
    outer loop
      vertex -2.93893 4.04508 30.1
      vertex -1.29313 1.77984 30.1
      vertex -1.54508 4.75528 30.1
    endloop
  endfacet
  facet normal 0 0 1
    outer loop
      vertex -1.29313 1.77984 30.1
      vertex -2.93893 4.04508 30.1
      vertex -1.77984 1.29313 30.1
    endloop
  endfacet
  facet normal -0 0 1
    outer loop
      vertex -4.04508 2.93893 30.1
      vertex -1.77984 1.29313 30.1
      vertex -2.93893 4.04508 30.1
    endloop
  endfacet
  facet normal 0 0 1
    outer loop
      vertex -1.77984 1.29313 30.1
      vertex -4.04508 2.93893 30.1
      vertex -2.09232 0.679837 30.1
    endloop
  endfacet
  facet normal -0 0 1
    outer loop
      vertex -4.75528 1.54508 30.1
      vertex -2.09232 0.679837 30.1
      vertex -4.04508 2.93893 30.1
    endloop
  endfacet
  facet normal 0 0 1
    outer loop
      vertex -2.09232 0.679837 30.1
      vertex -4.75528 1.54508 30.1
      vertex -2.2 0 30.1
    endloop
  endfacet
  facet normal 0 0 1
    outer loop
      vertex -2.2 0 30.1
      vertex -4.75528 1.54508 30.1
      vertex -5 0 30.1
    endloop
  endfacet
  facet normal 0.987688 -0.156435 0
    outer loop
      vertex 4.75528 -1.54508 38.09
      vertex 5 0 30.1
      vertex 5 0 38.09
    endloop
  endfacet
  facet normal 0.987688 -0.156435 0
    outer loop
      vertex 4.75528 -1.54508 0
      vertex 5 0 30.1
      vertex 4.75528 -1.54508 38.09
    endloop
  endfacet
  facet normal 0.987688 -0.156435 0
    outer loop
      vertex 5 0 30.1
      vertex 4.75528 -1.54508 0
      vertex 5 0 0
    endloop
  endfacet
  facet normal 0.156435 -0.987688 0
    outer loop
      vertex 0 -5 0
      vertex 1.54508 -4.75528 38.09
      vertex 0 -5 38.09
    endloop
  endfacet
  facet normal 0.156435 -0.987688 0
    outer loop
      vertex 1.54508 -4.75528 38.09
      vertex 0 -5 0
      vertex 1.54508 -4.75528 0
    endloop
  endfacet
  facet normal 0.707107 -0.707107 0
    outer loop
      vertex 2.93893 -4.04508 38.09
      vertex 4.04508 -2.93893 0
      vertex 4.04508 -2.93893 38.09
    endloop
  endfacet
  facet normal 0.707107 -0.707107 0
    outer loop
      vertex 4.04508 -2.93893 0
      vertex 2.93893 -4.04508 38.09
      vertex 2.93893 -4.04508 0
    endloop
  endfacet
  facet normal -0.453991 -0.891006 0
    outer loop
      vertex -2.93893 -4.04508 0
      vertex -1.54508 -4.75528 38.09
      vertex -2.93893 -4.04508 38.09
    endloop
  endfacet
  facet normal -0.453991 -0.891006 -0
    outer loop
      vertex -1.54508 -4.75528 38.09
      vertex -2.93893 -4.04508 0
      vertex -1.54508 -4.75528 0
    endloop
  endfacet
  facet normal -0.891006 -0.453991 0
    outer loop
      vertex -4.04508 -2.93893 0
      vertex -4.75528 -1.54508 38.09
      vertex -4.75528 -1.54508 0
    endloop
  endfacet
  facet normal -0.891006 -0.453991 0
    outer loop
      vertex -4.75528 -1.54508 38.09
      vertex -4.04508 -2.93893 0
      vertex -4.04508 -2.93893 38.09
    endloop
  endfacet
  facet normal 0.453991 -0.891006 0
    outer loop
      vertex 1.54508 -4.75528 0
      vertex 2.93893 -4.04508 38.09
      vertex 1.54508 -4.75528 38.09
    endloop
  endfacet
  facet normal 0.453991 -0.891006 0
    outer loop
      vertex 2.93893 -4.04508 38.09
      vertex 1.54508 -4.75528 0
      vertex 2.93893 -4.04508 0
    endloop
  endfacet
  facet normal -0.987688 -0.156434 0
    outer loop
      vertex 2.2 0 0
      vertex 2.09232 0.679837 30.1
      vertex 2.09232 0.679837 0
    endloop
  endfacet
  facet normal -0.987688 -0.156434 0
    outer loop
      vertex 2.09232 0.679837 30.1
      vertex 2.2 0 0
      vertex 2.2 0 30.1
    endloop
  endfacet
  facet normal 0.987688 -0.156434 0
    outer loop
      vertex -2.2 0 30.1
      vertex -2.09232 0.679837 0
      vertex -2.09232 0.679837 30.1
    endloop
  endfacet
  facet normal 0.987688 -0.156434 0
    outer loop
      vertex -2.09232 0.679837 0
      vertex -2.2 0 30.1
      vertex -2.2 0 0
    endloop
  endfacet
  facet normal 0.156434 -0.987688 0
    outer loop
      vertex -0.679837 2.09232 0
      vertex 0 2.2 30.1
      vertex -0.679837 2.09232 30.1
    endloop
  endfacet
  facet normal 0.156434 -0.987688 0
    outer loop
      vertex 0 2.2 30.1
      vertex -0.679837 2.09232 0
      vertex 0 2.2 0
    endloop
  endfacet
  facet normal -0.156434 0.987688 0
    outer loop
      vertex 0.679837 -2.09232 0
      vertex 0 -2.2 38.09
      vertex 0.679837 -2.09232 38.09
    endloop
  endfacet
  facet normal -0.156434 0.987688 0
    outer loop
      vertex 0 -2.2 38.09
      vertex 0.679837 -2.09232 0
      vertex 0 -2.2 0
    endloop
  endfacet
  facet normal -0.891006 0.453991 0
    outer loop
      vertex 1.77984 -1.29313 0
      vertex 2.09232 -0.679837 38.09
      vertex 2.09232 -0.679837 0
    endloop
  endfacet
  facet normal -0.891006 0.453991 0
    outer loop
      vertex 2.09232 -0.679837 38.09
      vertex 1.77984 -1.29313 0
      vertex 1.77984 -1.29313 38.09
    endloop
  endfacet
  facet normal -0.453991 -0.891006 0
    outer loop
      vertex 0.679837 2.09232 0
      vertex 1.29313 1.77984 30.1
      vertex 0.679837 2.09232 30.1
    endloop
  endfacet
  facet normal -0.453991 -0.891006 -0
    outer loop
      vertex 1.29313 1.77984 30.1
      vertex 0.679837 2.09232 0
      vertex 1.29313 1.77984 0
    endloop
  endfacet
  facet normal -0.891006 -0.453991 0
    outer loop
      vertex 2.09232 0.679837 0
      vertex 1.77984 1.29313 30.1
      vertex 1.77984 1.29313 0
    endloop
  endfacet
  facet normal -0.891006 -0.453991 0
    outer loop
      vertex 1.77984 1.29313 30.1
      vertex 2.09232 0.679837 0
      vertex 2.09232 0.679837 30.1
    endloop
  endfacet
  facet normal -0.156434 -0.987688 0
    outer loop
      vertex 0 2.2 0
      vertex 0.679837 2.09232 30.1
      vertex 0 2.2 30.1
    endloop
  endfacet
  facet normal -0.156434 -0.987688 -0
    outer loop
      vertex 0.679837 2.09232 30.1
      vertex 0 2.2 0
      vertex 0.679837 2.09232 0
    endloop
  endfacet
  facet normal 0.707107 -0.707107 0
    outer loop
      vertex -1.77984 1.29313 30.1
      vertex -1.29313 1.77984 0
      vertex -1.29313 1.77984 30.1
    endloop
  endfacet
  facet normal 0.707107 -0.707107 0
    outer loop
      vertex -1.29313 1.77984 0
      vertex -1.77984 1.29313 30.1
      vertex -1.77984 1.29313 0
    endloop
  endfacet
  facet normal 0.891006 -0.453991 0
    outer loop
      vertex -2.09232 0.679837 30.1
      vertex -1.77984 1.29313 0
      vertex -1.77984 1.29313 30.1
    endloop
  endfacet
  facet normal 0.891006 -0.453991 0
    outer loop
      vertex -1.77984 1.29313 0
      vertex -2.09232 0.679837 30.1
      vertex -2.09232 0.679837 0
    endloop
  endfacet
  facet normal 0.453991 -0.891006 0
    outer loop
      vertex -1.29313 1.77984 0
      vertex -0.679837 2.09232 30.1
      vertex -1.29313 1.77984 30.1
    endloop
  endfacet
  facet normal 0.453991 -0.891006 0
    outer loop
      vertex -0.679837 2.09232 30.1
      vertex -1.29313 1.77984 0
      vertex -0.679837 2.09232 0
    endloop
  endfacet
  facet normal -0.707107 -0.707107 0
    outer loop
      vertex 1.77984 1.29313 0
      vertex 1.29313 1.77984 30.1
      vertex 1.29313 1.77984 0
    endloop
  endfacet
  facet normal -0.707107 -0.707107 0
    outer loop
      vertex 1.29313 1.77984 30.1
      vertex 1.77984 1.29313 0
      vertex 1.77984 1.29313 30.1
    endloop
  endfacet
  facet normal -0.453991 0.891006 0
    outer loop
      vertex 1.29313 -1.77984 0
      vertex 0.679837 -2.09232 38.09
      vertex 1.29313 -1.77984 38.09
    endloop
  endfacet
  facet normal -0.453991 0.891006 0
    outer loop
      vertex 0.679837 -2.09232 38.09
      vertex 1.29313 -1.77984 0
      vertex 0.679837 -2.09232 0
    endloop
  endfacet
  facet normal -0.987688 0.156434 0
    outer loop
      vertex 2.09232 -0.679837 0
      vertex 2.2 0 30.1
      vertex 2.2 0 0
    endloop
  endfacet
  facet normal -0.987688 0.156434 0
    outer loop
      vertex 2.09232 -0.679837 38.09
      vertex 2.2 0 30.1
      vertex 2.09232 -0.679837 0
    endloop
  endfacet
  facet normal -0.987688 0.156434 0
    outer loop
      vertex 2.2 0 30.1
      vertex 2.09232 -0.679837 38.09
      vertex 2.2 0 38.09
    endloop
  endfacet
  facet normal -0.707107 0.707107 0
    outer loop
      vertex 1.29313 -1.77984 0
      vertex 1.77984 -1.29313 38.09
      vertex 1.77984 -1.29313 0
    endloop
  endfacet
  facet normal -0.707107 0.707107 0
    outer loop
      vertex 1.77984 -1.29313 38.09
      vertex 1.29313 -1.77984 0
      vertex 1.29313 -1.77984 38.09
    endloop
  endfacet
  facet normal 0.891006 0.453991 0
    outer loop
      vertex -1.77984 -1.29313 38.09
      vertex -2.09232 -0.679837 0
      vertex -2.09232 -0.679837 38.09
    endloop
  endfacet
  facet normal 0.891006 0.453991 0
    outer loop
      vertex -2.09232 -0.679837 0
      vertex -1.77984 -1.29313 38.09
      vertex -1.77984 -1.29313 0
    endloop
  endfacet
  facet normal 0.987688 0.156434 0
    outer loop
      vertex -2.09232 -0.679837 38.09
      vertex -2.2 0 30.1
      vertex -2.2 0 38.09
    endloop
  endfacet
  facet normal 0.987688 0.156434 -0
    outer loop
      vertex -2.09232 -0.679837 0
      vertex -2.2 0 30.1
      vertex -2.09232 -0.679837 38.09
    endloop
  endfacet
  facet normal 0.987688 0.156434 0
    outer loop
      vertex -2.2 0 30.1
      vertex -2.09232 -0.679837 0
      vertex -2.2 0 0
    endloop
  endfacet
  facet normal 0.156434 0.987688 -0
    outer loop
      vertex 0 -2.2 0
      vertex -0.679837 -2.09232 38.09
      vertex 0 -2.2 38.09
    endloop
  endfacet
  facet normal 0.156434 0.987688 0
    outer loop
      vertex -0.679837 -2.09232 38.09
      vertex 0 -2.2 0
      vertex -0.679837 -2.09232 0
    endloop
  endfacet
  facet normal 0.707107 0.707107 0
    outer loop
      vertex -1.29313 -1.77984 38.09
      vertex -1.77984 -1.29313 0
      vertex -1.77984 -1.29313 38.09
    endloop
  endfacet
  facet normal 0.707107 0.707107 0
    outer loop
      vertex -1.77984 -1.29313 0
      vertex -1.29313 -1.77984 38.09
      vertex -1.29313 -1.77984 0
    endloop
  endfacet
  facet normal 0.453991 0.891006 -0
    outer loop
      vertex -0.679837 -2.09232 0
      vertex -1.29313 -1.77984 38.09
      vertex -0.679837 -2.09232 38.09
    endloop
  endfacet
  facet normal 0.453991 0.891006 0
    outer loop
      vertex -1.29313 -1.77984 38.09
      vertex -0.679837 -2.09232 0
      vertex -1.29313 -1.77984 0
    endloop
  endfacet
  facet normal 0 1 -0
    outer loop
      vertex -2.2 0 30.1
      vertex -5 0 38.09
      vertex -2.2 0 38.09
    endloop
  endfacet
  facet normal 0 1 0
    outer loop
      vertex -5 0 38.09
      vertex -2.2 0 30.1
      vertex -5 0 30.1
    endloop
  endfacet
  facet normal 0 1 -0
    outer loop
      vertex 5 0 30.1
      vertex 2.2 0 38.09
      vertex 5 0 38.09
    endloop
  endfacet
  facet normal 0 1 0
    outer loop
      vertex 2.2 0 38.09
      vertex 5 0 30.1
      vertex 2.2 0 30.1
    endloop
  endfacet
  facet normal -0 0 1
    outer loop
      vertex 2.09232 -0.679837 38.09
      vertex 4.75528 -1.54508 38.09
      vertex 5 0 38.09
    endloop
  endfacet
  facet normal 0 0 1
    outer loop
      vertex 4.75528 -1.54508 38.09
      vertex 2.09232 -0.679837 38.09
      vertex 4.04508 -2.93893 38.09
    endloop
  endfacet
  facet normal 0 0 1
    outer loop
      vertex 2.09232 -0.679837 38.09
      vertex 5 0 38.09
      vertex 2.2 0 38.09
    endloop
  endfacet
  facet normal -0 0 1
    outer loop
      vertex 1.77984 -1.29313 38.09
      vertex 4.04508 -2.93893 38.09
      vertex 2.09232 -0.679837 38.09
    endloop
  endfacet
  facet normal 0 0 1
    outer loop
      vertex 4.04508 -2.93893 38.09
      vertex 1.77984 -1.29313 38.09
      vertex 2.93893 -4.04508 38.09
    endloop
  endfacet
  facet normal -0 0 1
    outer loop
      vertex 1.29313 -1.77984 38.09
      vertex 2.93893 -4.04508 38.09
      vertex 1.77984 -1.29313 38.09
    endloop
  endfacet
  facet normal 0 0 1
    outer loop
      vertex 2.93893 -4.04508 38.09
      vertex 1.29313 -1.77984 38.09
      vertex 1.54508 -4.75528 38.09
    endloop
  endfacet
  facet normal -0 0 1
    outer loop
      vertex 0.679837 -2.09232 38.09
      vertex 1.54508 -4.75528 38.09
      vertex 1.29313 -1.77984 38.09
    endloop
  endfacet
  facet normal -0 0 1
    outer loop
      vertex 0 -2.2 38.09
      vertex 1.54508 -4.75528 38.09
      vertex 0.679837 -2.09232 38.09
    endloop
  endfacet
  facet normal 0 0 1
    outer loop
      vertex 0 -2.2 38.09
      vertex 0 -5 38.09
      vertex 1.54508 -4.75528 38.09
    endloop
  endfacet
  facet normal 0 0 1
    outer loop
      vertex -0.679837 -2.09232 38.09
      vertex 0 -5 38.09
      vertex 0 -2.2 38.09
    endloop
  endfacet
  facet normal 0 0 1
    outer loop
      vertex -1.54508 -4.75528 38.09
      vertex -0.679837 -2.09232 38.09
      vertex -1.29313 -1.77984 38.09
    endloop
  endfacet
  facet normal 0 0 1
    outer loop
      vertex -0.679837 -2.09232 38.09
      vertex -1.54508 -4.75528 38.09
      vertex 0 -5 38.09
    endloop
  endfacet
  facet normal 0 0 1
    outer loop
      vertex -2.93893 -4.04508 38.09
      vertex -1.29313 -1.77984 38.09
      vertex -1.77984 -1.29313 38.09
    endloop
  endfacet
  facet normal 0 0 1
    outer loop
      vertex -4.04508 -2.93893 38.09
      vertex -1.77984 -1.29313 38.09
      vertex -2.09232 -0.679837 38.09
    endloop
  endfacet
  facet normal 0 0 1
    outer loop
      vertex -4.75528 -1.54508 38.09
      vertex -2.09232 -0.679837 38.09
      vertex -2.2 0 38.09
    endloop
  endfacet
  facet normal 0 0 1
    outer loop
      vertex -1.29313 -1.77984 38.09
      vertex -2.93893 -4.04508 38.09
      vertex -1.54508 -4.75528 38.09
    endloop
  endfacet
  facet normal 0 0 1
    outer loop
      vertex -1.77984 -1.29313 38.09
      vertex -4.04508 -2.93893 38.09
      vertex -2.93893 -4.04508 38.09
    endloop
  endfacet
  facet normal 0 0 1
    outer loop
      vertex -2.09232 -0.679837 38.09
      vertex -4.75528 -1.54508 38.09
      vertex -4.04508 -2.93893 38.09
    endloop
  endfacet
  facet normal 0 -0 1
    outer loop
      vertex -4.75528 -1.54508 38.09
      vertex -2.2 0 38.09
      vertex -5 0 38.09
    endloop
  endfacet
endsolid OpenSCAD_Model
